<?xml version="1.0" encoding="UTF-8" standalone="no"?>
<!-- Created with Inkscape (http://www.inkscape.org/) -->

<svg
   xmlns:dc="http://purl.org/dc/elements/1.1/"
   xmlns:cc="http://creativecommons.org/ns#"
   xmlns:rdf="http://www.w3.org/1999/02/22-rdf-syntax-ns#"
   xmlns:svg="http://www.w3.org/2000/svg"
   xmlns="http://www.w3.org/2000/svg"
   xmlns:sodipodi="http://sodipodi.sourceforge.net/DTD/sodipodi-0.dtd"
   xmlns:inkscape="http://www.inkscape.org/namespaces/inkscape"
   width="202.00002"
   height="130.55501"
   viewBox="0 0 53.445848 34.542725"
   version="1.1"
   id="svg4508"
   inkscape:version="0.92.1 r15371"
   sodipodi:docname="velib.svg">
  <defs
     id="defs4502" />
  <sodipodi:namedview
     id="base"
     pagecolor="#ffffff"
     bordercolor="#666666"
     borderopacity="1.0"
     inkscape:pageopacity="0.0"
     inkscape:pageshadow="2"
     inkscape:zoom="1.979899"
     inkscape:cx="124.27926"
     inkscape:cy="73.768622"
     inkscape:document-units="mm"
     inkscape:current-layer="layer1"
     showgrid="false"
     inkscape:pagecheckerboard="true"
     units="px"
     fit-margin-top="1"
     fit-margin-left="1"
     fit-margin-right="1"
     fit-margin-bottom="1"
     inkscape:window-width="1920"
     inkscape:window-height="1017"
     inkscape:window-x="-8"
     inkscape:window-y="-8"
     inkscape:window-maximized="1" />
  <metadata
     id="metadata4505">
    <rdf:RDF>
      <cc:Work
         rdf:about="">
        <dc:format>image/svg+xml</dc:format>
        <dc:type
           rdf:resource="http://purl.org/dc/dcmitype/StillImage" />
        <dc:title></dc:title>
      </cc:Work>
    </rdf:RDF>
  </metadata>
  <g
     inkscape:label="Calque 1"
     inkscape:groupmode="layer"
     id="layer1"
     transform="translate(-3.9164749,-259.13248)">
    <path
       id="path4356"
       style="display:inline;fill:#ffffff;fill-opacity:1;stroke-width:0.10743663"
       d="m 37.848926,259.39706 c -0.242556,0.005 -0.275636,0.0577 -0.310357,0.19172 -0.03223,0.1235 -0.199109,0.2735 -0.370374,0.33317 -0.263823,0.092 -0.311385,0.16637 -0.311385,0.4858 0,0.33688 -0.05439,0.40862 -0.510324,0.67185 -0.623704,0.36033 -0.667993,0.42007 -0.670035,0.90736 -0.0025,0.57213 0.391013,0.95561 0.980178,0.95561 0.295492,0 0.532601,-0.0705 0.676713,-0.2024 0.31861,-0.2909 0.63189,-0.35828 0.86704,-0.18632 0.19972,0.14582 0.197641,0.18262 -0.08771,1.63901 -0.349223,1.78225 -0.357912,2.16957 -0.06617,2.9413 0.122616,0.32418 0.315853,0.85534 0.429765,1.18033 0.114031,0.3249 0.254365,0.68758 0.312232,0.80571 0.351009,0.71753 0.347176,0.75528 -0.222152,2.11758 -0.842239,2.0158 -1.656689,3.16933 -3.602679,5.10269 -1.93137,1.9188 -3.755958,3.15643 -6.164614,4.18093 -0.881203,0.37477 -0.942327,0.35087 -0.815203,-0.31897 0.0425,-0.22484 0.172227,-0.39986 0.385889,-0.52144 0.261151,-0.14867 0.321869,-0.25387 0.321869,-0.559 0,-0.2069 -0.05523,-0.49666 -0.122317,-0.64422 -0.177266,-0.389 -1.166885,-0.69015 -1.166885,-0.35502 0,0.11682 -1.180266,0.7924 -1.221476,0.699 -0.03399,-0.0773 -0.561932,-1.53984 -0.999009,-2.76806 -0.262046,-0.73657 -0.577872,-1.5029 -0.701503,-1.70296 -0.186423,-0.30171 -0.199119,-0.38005 -0.07503,-0.45878 0.08241,-0.0521 0.188771,-0.0971 0.236338,-0.0974 0.04786,-8e-4 0.0718,-0.20706 0.0538,-0.45819 -0.02958,-0.39704 -0.06792,-0.46048 -0.301534,-0.48664 -0.690448,-0.0773 -0.752041,-0.11904 -0.752041,-0.5094 0,-0.26089 -0.04878,-0.37384 -0.161315,-0.37384 -0.08853,0 -0.160704,-0.0607 -0.160415,-0.13444 5.33e-4,-0.0735 -0.201482,-0.68117 -0.448811,-1.3499 l -0.449494,-1.21554 0.761936,-0.76197 0.761705,-0.76189 0.788144,-0.0654 c 0.906829,-0.0752 1.056738,-0.14363 1.056738,-0.47758 0,-0.25721 -0.116105,-0.42811 -0.521666,-0.76862 -0.220687,-0.18527 -0.474576,-0.22071 -1.987571,-0.27747 -0.957722,-0.0357 -2.436934,-0.1772 -3.302836,-0.3153 -1.332346,-0.21248 -1.618349,-0.22962 -1.899664,-0.11287 -0.452183,0.18723 -0.668318,0.68991 -0.668318,1.55305 0,0.79901 0.145646,1.01557 0.913207,1.35805 0.236344,0.10537 0.513895,0.29362 0.616694,0.41794 0.137692,0.16657 0.309786,0.22624 0.654083,0.22624 0.39998,0 0.485832,0.0407 0.595727,0.28184 0.115522,0.25328 0.170173,0.27514 0.541168,0.21578 l 0.412953,-0.0661 0.247571,0.77807 c 0.135891,0.42797 0.40769,1.1797 0.603886,1.67042 0.416318,1.04138 0.429966,1.15869 0.142098,1.23389 -0.438425,0.11465 -0.197936,1.04314 0.270311,1.04314 0.200006,0 0.277418,0.0706 0.324854,0.29538 0.03428,0.16258 0.151553,0.57367 0.260868,0.91369 l 0.198523,0.61838 -0.270311,0.0676 c -0.148599,0.0376 -0.301138,0.0212 -0.339099,-0.0378 -0.03807,-0.0582 -0.262339,-0.22779 -0.49877,-0.37709 -0.23634,-0.14922 -0.598976,-0.42143 -0.805778,-0.60517 -0.206796,-0.18376 -0.410701,-0.33492 -0.453049,-0.33571 -0.04221,-8.7e-4 -0.380741,-0.19883 -0.752063,-0.4396 -0.818455,-0.53067 -2.058008,-1.11964 -2.934989,-1.39467 -1.971953,-0.61824 -4.806137,-0.56389 -6.872156,0.13156 -0.860697,0.28986 -1.0613502,0.31882 -1.8264198,0.26535 -0.4727167,-0.0332 -1.0081501,-0.11797 -1.1897787,-0.18821 -0.3893447,-0.15123 -0.9052212,-0.051 -0.9052212,0.17547 0,0.0874 -0.096598,0.15891 -0.2147769,0.15891 -0.1766669,0 -0.215072,0.0716 -0.2153671,0.40288 -2.66e-4,0.22162 -0.044308,0.57202 -0.097485,0.77897 -0.053478,0.20676 -0.1279141,0.67817 -0.1660296,1.04744 l -0.068829,0.67156 h 0.3858336 c 0.7010809,0 0.7304162,0.18162 0.1518509,0.9365 -0.7185999,0.93741 -1.3423391,2.25865 -1.6568505,3.5091 -0.3496405,1.38984 -0.3782663,3.57335 -0.062924,4.80356 0.2904059,1.1326 0.622436,2.03889 0.8710093,2.37662 0.5675469,0.96916 0.5070438,0.8328 0.8588687,1.34504 0.3595076,0.53457 1.4876589,1.63696 2.0614412,2.01429 0.2546594,0.16744 0.5871622,0.38831 0.7386292,0.49103 0.151553,0.10241 0.5140746,0.2818 0.8057804,0.39822 2.0220665,0.80735 2.3969275,0.88456 4.2907375,0.88417 1.362783,-1.6e-4 2.465375,-0.13404 3.004888,-0.36495 0.17902,-0.0763 0.660133,-0.27019 1.069115,-0.43024 0.409,-0.16013 0.862711,-0.38479 1.008267,-0.49919 1.179127,-0.68446 1.001741,-0.64071 1.659396,-1.23826 0.5765,-0.51824 1.466354,-1.5984 1.74164,-2.11415 0.182567,-0.34203 0.275927,-0.40398 0.698329,-0.46316 0.619192,-0.0865 2.09152,-0.44574 2.58269,-0.63014 0.237824,-0.0886 0.464836,-0.10777 0.617765,-0.0503 0.262644,0.0981 0.295143,0.32194 0.17491,1.19924 -0.05876,0.42944 -0.106347,0.49823 -0.40289,0.58546 -0.332593,0.0976 -0.335839,0.10578 -0.306158,0.73483 0.01774,0.34974 0.07359,0.67923 0.126463,0.73234 0.09338,0.0928 2.41397,-0.095 2.601982,-0.21114 0.104289,-0.0642 0.113138,-0.57745 0.0207,-1.14324 -0.05905,-0.35654 -0.101913,-0.40301 -0.374787,-0.40301 -0.307801,0 -0.308249,-7.4e-4 -0.308249,-0.70064 0,-0.6649 0.01477,-0.70623 0.295453,-0.81477 0.871528,-0.33708 1.17144,-0.55495 1.550916,-1.12614 0.601193,-0.90487 0.686429,-2.21636 0.206799,-3.18556 -0.150662,-0.30441 -0.165144,-0.40416 -0.05844,-0.40416 0.07771,0 0.663972,-0.26643 1.302653,-0.59217 1.943305,-0.9912 3.676668,-2.17762 5.060862,-3.46358 0.07946,-0.0738 0.272698,-0.15119 0.364364,-0.2564 l 0.233673,-0.26821 c 0.342973,-0.29824 0.221279,-0.24701 0.465482,-0.36169 0.188788,-0.0883 0.358108,-0.25788 0.37602,-0.37593 0.02658,-0.17458 0.128809,-0.22102 0.543063,-0.24758 0.603105,-0.0383 0.661844,0.11403 0.253173,0.65754 -0.455278,0.6055 -1.131128,2.03177 -1.485432,3.13549 -0.341401,1.06318 -0.34489,1.097 -0.348558,3.27678 -0.0028,1.45836 0.04494,2.42104 0.140031,2.84937 0.124084,0.55776 0.120548,0.75889 -0.0236,1.46229 -0.09277,0.44869 -0.200604,1.16083 -0.239885,1.5826 l -0.07119,0.76674 h 0.318964 c 0.614672,0 0.780111,-0.33757 1.031335,-2.10467 0.124085,-0.87258 0.245795,-1.51746 0.270613,-1.43295 0.09072,0.30809 0.606585,1.33618 0.68785,1.37068 0.04606,0.0208 0.161596,0.20002 0.257024,0.40075 0.250514,0.52785 1.693572,1.94922 2.59738,2.55815 1.276512,0.80037 1.220902,0.71038 2.127525,1.06093 0.752748,0.29332 1.464848,0.4681 2.248199,0.55125 0.639953,0.068 2.729637,-0.0237 3.388656,-0.14893 0.536233,-0.10156 1.46919,-0.42475 2.3592,-0.81708 0.672013,-0.29625 1.762678,-1.09327 2.555192,-1.86714 0.426444,-0.41639 0.775292,-0.79238 0.775347,-0.83559 9.3e-5,-0.043 0.127331,-0.22359 0.282435,-0.40076 0.447488,-0.51101 1.314824,-2.39504 1.508509,-3.27691 0.122596,-0.55858 0.179028,-1.34919 0.182875,-2.57835 0.0062,-1.5076 -0.03008,-1.9058 -0.233685,-2.66193 -0.258798,-0.96111 -0.789883,-2.09383 -1.422214,-3.03226 -1.582592,-2.34853 -4.704445,-4.0743 -7.382078,-4.08066 -0.758753,-9.9e-4 -0.778929,-0.009 -0.778929,-0.27031 0,-0.25568 -0.03036,-0.26861 -0.62132,-0.26861 -0.341657,0 -0.866867,0.0637 -1.167113,0.14154 l -0.545767,0.14153 0.205911,-0.49095 c 0.333593,-0.79444 0.878538,-1.84513 0.997333,-1.92282 0.06058,-0.0396 0.762849,-0.0718 1.560571,-0.0718 h 1.450401 l 0.03015,-1.20861 c 0.01772,-0.68594 0.07532,-1.20874 0.134419,-1.20874 0.05703,0 0.104295,-0.0842 0.10459,-0.18789 7.03e-4,-0.18064 0.226002,-1.06695 0.977181,-3.84705 0.196169,-0.72586 0.317444,-1.38034 0.275929,-1.48842 -0.06792,-0.17727 -0.211522,-0.18907 -1.765113,-0.14455 -1.522017,0.0439 -1.836205,0.087 -3.141495,0.43995 -0.797722,0.21534 -2.023866,0.54572 -2.72453,0.73423 l -1.273913,0.34239 0.06736,0.43757 c 0.143282,0.93082 0.490473,4.49569 0.44297,4.54895 -0.01477,0.0153 -0.185826,-0.44316 -0.38107,-1.02071 -0.195279,-0.57723 -0.444887,-1.26125 -0.554781,-1.51984 -0.126741,-0.29779 -0.163384,-0.5143 -0.100455,-0.59079 0.140612,-0.17118 0.415841,-1.20435 0.490381,-1.83986 0.03457,-0.29545 0.0207,-1.07732 -0.02659,-1.73786 -0.08655,-1.14002 -0.111089,-1.22978 -0.485294,-1.77279 -0.423745,-0.61476 -0.964755,-1.09894 -1.423322,-1.27331 -0.157163,-0.0597 -0.717865,-0.13911 -1.246032,-0.17655 -0.342136,-0.0236 -0.563073,-0.0378 -0.708604,-0.0351 z m 11.09871,4.17046 c 0.425585,0.003 0.690901,0.0748 0.645024,0.2195 -0.03483,0.10998 -0.124675,0.41203 -0.1997,0.67157 l -0.1362,0.4715 -0.640195,0.0706 c -0.352062,0.0388 -1.135558,0.10522 -1.741251,0.14716 l -1.101203,0.0763 v -0.52487 -0.52454 l 1.059051,-0.29393 c 0.755343,-0.20973 1.567327,-0.31781 2.11453,-0.31353 z m -3.927307,0.79054 c 0.09955,9.2e-4 0.10901,0.10006 0.10901,0.43516 v 0.47908 l -1.128091,0.0967 -1.128086,0.0974 v -0.26932 c 0,-0.24697 0.07472,-0.28927 0.88637,-0.50594 0.487493,-0.13008 0.99512,-0.26826 1.128066,-0.3072 0.05615,-0.0181 0.09956,-0.0269 0.13265,-0.0269 z m 3.988572,1.34688 -0.07473,0.31106 c -0.0411,0.17095 -0.08006,0.31903 -0.08655,0.32896 -0.0061,0.009 -0.398624,0.0667 -0.87126,0.12645 -0.472616,0.0595 -1.16144,0.13856 -1.530747,0.17515 l -0.671485,0.0667 v -0.36558 -0.36554 l 1.047505,-0.0726 c 0.576144,-0.0399 1.303959,-0.10255 1.617438,-0.13881 z m -3.879478,0.32335 v 0.32322 c 0,0.29005 -0.0414,0.33005 -0.402874,0.38983 v 1.8e-4 c -0.536726,0.0888 -1.584593,0.087 -1.674307,-0.003 -0.03926,-0.0393 -0.07148,-0.1844 -0.07148,-0.3223 0,-0.22723 0.04752,-0.25088 0.510331,-0.25178 0.280652,-4.9e-4 0.764141,-0.0312 1.074375,-0.0685 z m 3.576044,1.07504 -0.07796,0.30989 c -0.04284,0.17053 -0.09723,0.32899 -0.120534,0.3526 -0.02365,0.0237 -0.442566,0.0807 -0.931248,0.12788 -0.488665,0.0469 -1.093908,0.0879 -1.345065,0.0906 -0.417198,0.005 -0.456615,-0.018 -0.456615,-0.26171 0,-0.14776 0.01185,-0.27096 0.02658,-0.27417 0.06089,-0.0128 1.788445,-0.2225 2.325233,-0.28191 z m -3.882392,0.41529 c 0.305823,-9.6e-4 0.306348,0.0521 0.306348,0.26793 0,0.27094 -0.03724,0.29247 -0.617735,0.35985 -0.339783,0.0396 -0.774909,0.0986 -0.966937,0.13184 -0.331585,0.0564 -0.349167,0.0435 -0.349167,-0.27215 0,-0.38273 0.07826,-0.41321 1.208656,-0.47064 0.181093,-0.009 0.316885,-0.0153 0.418835,-0.018 z m 1.285667,1.22541 c 0.294843,0 0.327103,0.0288 0.27002,0.24169 -0.03573,0.13291 -0.06533,0.27799 -0.06616,0.32225 -0.0029,0.15545 -0.409077,0.0786 -0.473594,-0.0896 -0.136494,-0.35613 -0.06916,-0.47469 0.269721,-0.47469 z m -1.170255,0.11205 c 0.02362,-0.001 0.04488,-5.6e-4 0.06347,7e-4 0.122324,0.009 0.127645,0.0778 0.127645,0.25198 0,0.15746 -0.06058,0.30547 -0.134433,0.32866 -0.07389,0.0236 -0.484829,0.073 -0.913234,0.1104 l -0.778875,0.0685 v -0.32893 c 0,-0.30995 0.02359,-0.3288 0.414626,-0.3288 0.228073,0 0.639041,-0.0306 0.9132,-0.0682 0.136472,-0.0182 0.235745,-0.0318 0.307616,-0.0346 z m 0.277404,1.75563 -0.103093,0.27126 c -0.05678,0.14913 -0.145941,0.32293 -0.198236,0.3861 -0.05233,0.063 -0.248738,0.49965 -0.436462,0.97016 -0.518503,1.30074 -0.609374,1.4467 -0.90126,1.4467 -0.159822,0 -0.27209,0.0713 -0.29513,0.1879 -0.02988,0.15122 -0.05528,0.15921 -0.130292,0.0395 -0.06179,-0.0983 -0.03396,-0.18165 0.083,-0.2472 0.09691,-0.0545 0.176377,-0.16865 0.176377,-0.2544 0,-0.0857 0.07211,-0.15589 0.160411,-0.15589 0.116404,0 0.15658,-0.11086 0.145942,-0.403 -0.0091,-0.22155 0.0207,-0.74974 0.06469,-1.17409 0.08742,-0.85394 0.110195,-0.87811 0.934612,-0.99595 z m -3.949993,3.51945 c 0.05461,0.003 0.126747,0.10462 0.210642,0.30719 0.106361,0.25698 0.106361,0.35503 -2e-4,0.48344 -0.227784,0.27451 -0.32211,0.18022 -0.32211,-0.32265 0,-0.31409 0.0414,-0.4722 0.111672,-0.46798 z m 5.870844,1.81152 c 0.500402,-4.2e-4 1.79275,0.20382 2.03798,0.37203 0.442636,0.18732 0.449345,0.151 0.905607,0.38739 0.510777,0.25345 0.548555,0.27594 0.924957,0.49093 l 0.258509,0.14597 c 0.152132,0.068 0.181385,0.0895 0.336563,0.21475 0.515302,0.41418 1.031298,0.89986 1.37195,1.36297 0.04879,0.0652 0,0 0.161313,0.20972 0.05789,0.075 0,0 0.160995,0.21244 0.122019,0.17075 0.158053,0.22217 0.268556,0.38382 0.134114,0.19613 0.194091,0.27258 0.268541,0.47119 0.08801,0.14454 0.09689,0.14247 0.155406,0.29742 0.148588,0.25791 0.304398,0.51696 0.347828,0.80917 0.210639,0.55102 0.287736,0.90338 0.35637,1.24912 0.04462,0.23002 0.09834,1.47943 -0.105173,2.11006 -0.116982,0.25766 -0.07946,0.40995 -0.218316,0.79073 -0.003,0.17719 -0.0768,0.41615 -0.163384,0.53094 -0.08684,0.11454 -0.157448,0.29593 -0.157448,0.40277 -0.17815,0.32643 -0.284513,0.75068 -0.486162,1.05388 -0.211224,0.19489 -0.333178,0.52177 -0.447398,0.71352 -0.287156,0.24364 -0.144168,0.2287 -0.421867,0.5133 -0.720379,0.66532 -0.741039,0.76199 -0.766453,0.76865 -0.651844,0.46921 -1.271242,0.81115 -1.70956,0.98673 -0.778787,0.19056 -1.384404,0.45081 -2.083689,0.51319 -0.380771,0.0323 -0.837491,0.0715 -1.014762,0.0879 -1.418115,0.25733 -3.091272,-0.34054 -3.814004,-0.93454 -0.179327,-0.0351 -0.53742,-0.27917 -0.806822,-0.54866 -0.266472,-0.26653 -0.604714,-0.56333 -0.751845,-0.65969 -0.353828,-0.23197 -1.187365,-1.50978 -1.269927,-1.94692 l -0.283599,-0.56407 c -0.119941,-0.11989 -0.21833,-0.34556 -0.21833,-0.50129 0,-0.15563 -0.05637,-0.58897 -0.125252,-0.9631 -0.156272,-0.84807 0.0207,-2.70783 0.346214,-3.63292 0.478094,-1.36021 1.469722,-2.81314 2.275479,-3.33366 0.29158,-0.18854 0.294539,-0.18764 0.402891,0.0962 0.05997,0.15782 0.109031,0.31258 0.109031,0.34416 0,0.0317 0.08242,0.23071 0.182874,0.4425 0.134116,0.28254 0.148298,0.39658 0.05378,0.42811 -0.161309,0.0537 -0.171354,1.01312 -0.01468,1.52993 0.06204,0.2065 0.178436,0.98032 0.258797,1.71982 0.15185,1.39798 0.430698,2.17849 0.994407,2.78356 0.289816,0.31104 1.39333,0.42816 2.119994,0.22475 0.481313,-0.13474 0.482397,-0.13445 0.859703,0.25409 0.481755,0.49606 0.811443,0.52054 0.811443,0.0604 0,-0.23285 -0.101034,-0.42038 -0.346448,-0.64463 l -0.346149,-0.31628 h 0.322302 c 0.690807,0 1.122423,-0.65103 1.122423,-1.69358 0,-0.51847 -0.04049,-0.63163 -0.321456,-0.89999 -0.243444,-0.23259 -0.425125,-0.30729 -0.748909,-0.30729 -0.491535,0 -1.400687,-0.56314 -1.400687,-0.86758 0,-0.099 -0.09662,-0.20683 -0.214771,-0.23788 -0.128512,-0.0333 -0.214783,-0.14653 -0.214783,-0.28122 0,-0.12371 -0.06349,-0.22485 -0.14091,-0.22485 -0.177561,0 -0.554287,-0.50464 -0.642951,-0.86161 -0.03696,-0.14882 -0.162778,-0.37305 -0.279177,-0.49815 -0.116401,-0.12492 -0.244608,-0.40215 -0.284505,-0.61565 -0.04019,-0.21356 -0.110184,-0.38815 -0.155683,-0.38815 -0.04547,0 -0.146531,-0.22959 -0.224819,-0.51038 -0.07825,-0.28064 -0.15894,-0.56384 -0.179032,-0.62945 -0.0207,-0.0655 0.09866,-0.17339 0.264118,-0.23987 0.548342,-0.22042 2.3363,-0.66085 2.683819,-0.66118 z m -33.09428,0.35813 c 1.128937,0.003 2.146816,0.2426 2.242123,0.64421 0.06349,0.26765 0.165146,1.39314 0.161884,1.79059 -0.003,0.45095 -0.275323,1.26618 -0.911878,1.68064 -0.264415,0.16356 -0.47339,0.31088 -0.729026,0.46476 -0.115226,0.003 -0.187888,0.0865 -0.187888,0.21815 0,0.15761 -0.0716,0.21486 -0.26854,0.21486 -0.147718,0 -0.268553,-0.0486 -0.268553,-0.10752 0,-0.0593 -0.120825,-0.10755 -0.268554,-0.10755 -0.147705,0 -0.268535,0.0487 -0.268535,0.10755 0,0.32422 -0.737618,0.75206 -1.296358,0.75206 -0.278605,0 -0.315186,0.0375 -0.315186,0.32235 0,0.2227 -0.05289,0.32227 -0.170743,0.32227 -0.147714,0 -0.165736,0.1578 -0.134432,1.17509 0.03518,1.13198 0.04815,1.18705 0.352751,1.50477 0.517446,0.53961 1.342012,0.66295 2.858824,0.42765 0.651547,-0.10095 0.767844,-0.0931 0.924325,0.0631 0.122601,0.12272 0.308496,0.16673 0.591313,0.13976 0.226911,-0.0213 0.41255,-0.003 0.41255,0.0407 0,0.0449 0.253778,0.0698 0.564038,0.0573 0.511503,-0.0208 3.080604,0.31378 3.186811,0.41592 0.02365,0.0235 -0.0062,0.15459 -0.06914,0.29097 -0.111677,0.24525 -0.661404,0.4566 -1.80167,0.69232 -0.395189,0.0814 -0.43746,0.12454 -0.524378,0.5351 -0.130572,0.61692 -0.04341,0.78111 0.4136,0.78111 0.208568,0 0.379396,0.0484 0.379396,0.10759 0,0.0597 -0.07242,0.1077 -0.161309,0.1077 -0.08865,0 -0.161314,0.0937 -0.161314,0.20738 0,0.25966 -0.382426,0.53488 -1.403813,1.00989 -1.121,0.52138 -2.302744,0.81465 -3.050959,0.74325 -0.618245,-0.0128 -0.823392,-7.6e-4 -1.293094,-0.094 -0.118177,-0.0237 -0.492854,-0.0978 -0.832642,-0.16344 -0.471291,-0.092 -0.477204,-0.22035 -0.608149,-0.27944 -0.182283,-0.0819 -0.183476,-0.0661 -0.423969,-0.18199 -0.254369,-0.13523 -0.36885,-0.21534 -0.62748,-0.38118 -0.4929376,-0.12999 -1.6699235,-1.02053 -1.8589098,-1.35091 -0.088629,-0.17275 -0.2384101,-0.39994 -0.3325933,-0.5047 -0.094247,-0.10442 -0.2729751,-0.42888 -0.3856231,-0.76737 -0.2812465,-0.50792 -0.1881871,-0.35307 -0.2717932,-0.54628 -0.042547,-0.0982 -0.1917315,-0.47497 -0.1917315,-0.5771 -0.280658,-0.79346 -0.52808,-1.63634 -0.5371779,-2.44843 -0.1353096,-0.42554 0.4232308,-2.41329 0.6446246,-2.72246 0.1471238,-0.43404 0.066767,-0.12555 0.1075376,-0.2786 0.1285105,-0.57482 0.8429449,-1.6371 1.3870653,-2.07967 0.1613014,-0.16812 0,0 0.5065111,-0.4845 0.5502871,-0.58619 2.0166852,-1.26128 2.6456132,-1.47618 0.582017,-0.18343 1.299328,-0.26657 1.976654,-0.26439 z m 5.007367,8.32203 c 0.534715,-0.009 1.27818,0.0903 1.663371,0.25658 0.279472,0.1207 0.313746,0.17678 0.234862,0.38313 -0.100146,0.26196 -0.217723,0.27559 -1.119903,0.12934 -1.74051,-0.28177 -2.083924,-0.356 -2.032275,-0.43959 0.03162,-0.0511 0.139145,-0.0931 0.238992,-0.0931 0.09985,-2.7e-4 0.310648,-0.068 0.468373,-0.15006 0.103692,-0.0547 0.303551,-0.081 0.546641,-0.0858 z m 5.028535,0.23649 c 0.15865,0 0.208272,0.075 0.208272,0.31546 0,0.17341 0.04967,0.44612 0.110501,0.60588 0.128788,0.33842 0.131443,0.3349 -0.217738,0.28268 -0.402884,-0.06 -0.463758,-0.17341 -0.382977,-0.71219 0.05844,-0.38935 0.117003,-0.49173 0.282145,-0.49173 z"
       inkscape:connector-curvature="0"
       sodipodi:nodetypes="cccsccscccscccccscscscccccccssccccccsccscsccsccccscscccccscccccccsscsccsccsccscsccccccccccccccsssssssccscccccccssccsccccccccccssscccscssccccsccscccsccccccccccscccccccccccccccccccscccccscccccccccscccscccccsccsccccsccsccsccccccscccsscccccccscccsscccccccsccccccscscsccccccccccccccccccccssccccscccccccsccsscsscsscccscccscccsscssccssscccccscccccsssscccscccccscccccccscccccccccssccccsscccs" />
  </g>
</svg>
