<?xml version="1.0" encoding="UTF-8" standalone="no"?>
<!-- Created with Inkscape (http://www.inkscape.org/) -->

<svg
   xmlns:osb="http://www.openswatchbook.org/uri/2009/osb"
   xmlns:dc="http://purl.org/dc/elements/1.1/"
   xmlns:cc="http://creativecommons.org/ns#"
   xmlns:rdf="http://www.w3.org/1999/02/22-rdf-syntax-ns#"
   xmlns:svg="http://www.w3.org/2000/svg"
   xmlns="http://www.w3.org/2000/svg"
   xmlns:xlink="http://www.w3.org/1999/xlink"
   xmlns:sodipodi="http://sodipodi.sourceforge.net/DTD/sodipodi-0.dtd"
   xmlns:inkscape="http://www.inkscape.org/namespaces/inkscape"
   version="1.1"
   id="svg5828"
   width="491.74075"
   height="202.10359"
   viewBox="0 0 491.74075 202.10359"
   sodipodi:docname="banner_bikeme.svg"
   inkscape:version="0.92.1 r15371">
  <metadata
     id="metadata5834">
    <rdf:RDF>
      <cc:Work
         rdf:about="">
        <dc:format>image/svg+xml</dc:format>
        <dc:type
           rdf:resource="http://purl.org/dc/dcmitype/StillImage" />
        <dc:title></dc:title>
      </cc:Work>
    </rdf:RDF>
  </metadata>
  <defs
     id="defs5832">
    <linearGradient
       inkscape:collect="always"
       id="linearGradient9040">
      <stop
         style="stop-color:#ff7f2a;stop-opacity:1;"
         offset="0"
         id="stop9036" />
      <stop
         style="stop-color:#ff2a2a;stop-opacity:1"
         offset="1"
         id="stop9038" />
    </linearGradient>
    <linearGradient
       id="linearGradient9008"
       osb:paint="solid">
      <stop
         style="stop-color:#000000;stop-opacity:1;"
         offset="0"
         id="stop9006" />
    </linearGradient>
    <linearGradient
       inkscape:collect="always"
       xlink:href="#linearGradient9040"
       id="linearGradient9042"
       x1="606.17926"
       y1="668.03247"
       x2="603.60254"
       y2="463.82544"
       gradientUnits="userSpaceOnUse"
       gradientTransform="matrix(0.94008839,0,0,0.98119122,31.016453,8.7239898)" />
  </defs>
  <sodipodi:namedview
     pagecolor="#ffffff"
     bordercolor="#666666"
     borderopacity="1"
     objecttolerance="10"
     gridtolerance="10"
     guidetolerance="10"
     inkscape:pageopacity="0"
     inkscape:pageshadow="2"
     inkscape:window-width="1920"
     inkscape:window-height="1017"
     id="namedview5830"
     showgrid="false"
     inkscape:zoom="2.1953488"
     inkscape:cx="249.11383"
     inkscape:cy="117.90268"
     inkscape:window-x="-8"
     inkscape:window-y="-8"
     inkscape:window-maximized="1"
     inkscape:current-layer="layer1"
     fit-margin-top="2.7755576e-017"
     fit-margin-left="2.7755576e-017"
     fit-margin-bottom="2.7755576e-017"
     fit-margin-right="2.7755576e-017" />
  <g
     inkscape:groupmode="layer"
     id="layer1"
     inkscape:label="Layer 1"
     style="display:inline"
     transform="translate(-360.45853,-463.82547)">
    <rect
       style="display:inline;opacity:0.98000004;fill:url(#linearGradient9042);fill-opacity:1;stroke-width:0.96041995"
       id="rect7546"
       width="491.74075"
       height="201.63031"
       x="360.45853"
       y="463.82547"
       inkscape:label="sky"
       inkscape:export-xdpi="149"
       inkscape:export-ydpi="149" />
    <path
       style="fill:#ffffff;fill-opacity:0.50196078"
       d="m 771.35594,515.93922 c -0.8774,-1.63944 -0.70232,-2.24529 0.94641,-3.27494 1.11263,-0.69485 2.02297,-1.81428 2.02297,-2.48763 0,-4.23496 11.59434,-3.66635 16.98373,0.83291 2.86983,2.39585 3.2915,3.21332 2.39357,4.64031 -0.89469,1.42186 -2.89737,1.78308 -11.18003,2.01653 -9.24374,0.26054 -10.18039,0.11566 -11.16665,-1.72718 z"
       id="path9068"
       inkscape:connector-curvature="0"
       inkscape:label="cloud1" />
    <path
       style="fill:#ffffff;fill-opacity:0.50196078"
       d="m 536.53431,544.41732 c 0.0175,-0.9625 0.6329,-2.54201 1.36757,-3.51002 2.57455,-3.39226 13.60063,-0.55434 13.60063,3.50057 0,1.52287 -1.00846,1.75945 -7.5,1.75945 -6.48831,0 -7.49571,-0.23606 -7.4682,-1.75 z"
       id="path9066"
       inkscape:connector-curvature="0"
       inkscape:label="cloud2" />
    <path
       style="display:inline;fill:#ffffff;fill-opacity:0.50196078"
       d="m 625.97687,517.47975 c -0.8774,-1.63944 -0.70232,-2.24529 0.94641,-3.27494 1.11263,-0.69485 2.02297,-1.81428 2.02297,-2.48763 0,-4.23496 11.59434,-3.66635 16.98373,0.83291 2.86983,2.39585 3.2915,3.21332 2.39357,4.64031 -0.89469,1.42186 -2.89737,1.78308 -11.18003,2.01653 -9.24374,0.26054 -10.18039,0.11566 -11.16665,-1.72718 z"
       id="path9068-6"
       inkscape:connector-curvature="0"
       inkscape:label="cloud1" />
    <path
       style="display:inline;fill:#ffffff;fill-opacity:0.50196078"
       d="m 692.74663,547.9153 c 0.0175,-0.9625 0.6329,-2.54201 1.36757,-3.51002 2.57455,-3.39226 13.60063,-0.55434 13.60063,3.50057 0,1.52287 -1.00846,1.75945 -7.5,1.75945 -6.48831,0 -7.49571,-0.23606 -7.4682,-1.75 z"
       id="path9066-9"
       inkscape:connector-curvature="0"
       inkscape:label="cloud2" />
    <path
       style="display:inline;fill:#ffffff;fill-opacity:0.50196078"
       d="m 381.56051,557.82395 c -0.8774,-1.63944 -0.70232,-2.24529 0.94641,-3.27494 1.11263,-0.69485 2.02297,-1.81428 2.02297,-2.48763 0,-4.23496 11.59434,-3.66635 16.98373,0.83291 2.86983,2.39585 3.2915,3.21332 2.39357,4.64031 -0.89469,1.42186 -2.89737,1.78308 -11.18003,2.01653 -9.24374,0.26054 -10.18039,0.11566 -11.16665,-1.72718 z"
       id="path9068-62"
       inkscape:connector-curvature="0"
       inkscape:label="cloud1" />
    <path
       id="path3846"
       style="fill:#000000"
       d="m 494.59808,585.45602 c 0,-1.05548 -1.91911,-1.49891 -2.48992,-0.57533 -0.34546,0.55897 0.0734,1.01631 0.9309,1.01631 0.85746,0 1.55902,-0.19844 1.55902,-0.44098 z m -4.5,-0.55902 c -0.33992,-0.55 -1.04148,-1 -1.55902,-1 -0.51754,0 -0.94098,0.45 -0.94098,1 0,0.55 0.70156,1 1.55902,1 0.85746,0 1.2809,-0.45 0.94098,-1 z m -4.05279,-0.0854 c -0.32197,-0.52097 -1.01165,-0.68378 -1.53262,-0.3618 -0.52097,0.32197 -0.68378,1.01165 -0.3618,1.53262 0.32197,0.52097 1.01165,0.68378 1.53262,0.3618 0.52097,-0.32197 0.68378,-1.01165 0.3618,-1.53262 z m 56.05279,38.08541 c 0,-1.83273 -0.60174,-2.58545 -2.25447,-2.82014 -2.45711,-0.34891 -3.85266,1.79561 -2.85699,4.39028 0.3614,0.9418 1.50471,1.44202 2.85699,1.25 1.65273,-0.23469 2.25447,-0.98741 2.25447,-2.82014 z m -8,0.60899 c 0,-1.04006 -0.77511,-2.37995 -1.72248,-2.97753 -2.32215,-1.46477 -4.20695,0.44018 -3.29097,3.32617 0.87462,2.75569 5.01345,2.46786 5.01345,-0.34864 z m -8,-0.60899 c 0,-1.83273 -0.60174,-2.58545 -2.25447,-2.82014 -2.45711,-0.34891 -3.85266,1.79561 -2.85699,4.39028 0.3614,0.9418 1.50471,1.44202 2.85699,1.25 1.65273,-0.23469 2.25447,-0.98741 2.25447,-2.82014 z m -8.17567,1.5972 c 0.81536,-2.12479 -1.58304,-4.81889 -3.60071,-4.04464 -1.70937,0.65595 -2.33807,3.49966 -1.05695,4.78077 1.17532,1.17533 4.10164,0.71283 4.65766,-0.73613 z m -54.32433,-0.12858 c 0,-3.09727 -2.59728,-4.29991 -4.71429,-2.18291 -2.117,2.11701 -0.91436,4.71429 2.18291,4.71429 2.04184,0 2.53138,-0.48954 2.53138,-2.53138 z m -8,0.13837 c 0,-3.01334 -2.99105,-4.33971 -4.65494,-2.06422 -1.68201,2.3003 -0.58742,4.45723 2.26193,4.45723 1.85735,0 2.39301,-0.53566 2.39301,-2.39301 z m -8.18358,-0.34844 c -0.41114,-3.5621 -3.49892,-4.27289 -4.70377,-1.08279 -1.12923,2.9899 -0.58101,3.82424 2.51279,3.82424 2.14374,0 2.46151,-0.39761 2.19098,-2.74145 z m -9.01642,2.54145 c 1.82573,-1.82573 1.43383,-4.50559 -0.7421,-5.07461 -2.39064,-0.62517 -3.0579,-0.0197 -3.0579,2.77461 0,3.45097 1.65021,4.44979 3.8,2.3 z m 60.00638,8.2 c -0.32615,-4.50898 -0.10751,-6 0.87981,-6 0.7226,0 1.31381,-0.47656 1.31381,-1.05902 0,-0.58246 -0.40285,-0.81004 -0.89522,-0.50574 -0.49236,0.3043 -1.15324,-0.11914 -1.46861,-0.94098 -0.31537,-0.82184 -1.0693,-1.49426 -1.67539,-1.49426 -0.75109,0 -0.94199,2.46782 -0.59951,7.75 0.59715,9.20995 0.39249,8.25 1.75892,8.25 0.75068,0 0.97703,-1.9792 0.68619,-6 z m -36.07721,5.39583 c -0.33229,-0.33229 -1.1948,-0.36781 -1.91667,-0.0789 -0.79773,0.31922 -0.56078,0.55618 0.60417,0.60416 1.05416,0.0434 1.64479,-0.19293 1.3125,-0.52522 z m 11.27083,0.60417 c 0,-0.55 -1.0125,-0.96837 -2.25,-0.92971 -2.1469,0.0671 -2.15836,0.10966 -0.25,0.92971 1.1,0.47269 2.1125,0.89106 2.25,0.92971 0.1375,0.0387 0.25,-0.37971 0.25,-0.92971 z m -5.92374,-13.75687 c -1.06673,-1.83117 -1.30711,-0.11741 -1.26337,9.00687 0.0104,2.15911 -0.47644,3.77982 -1.14745,3.82029 -0.64099,0.0387 -0.26544,0.42324 0.83456,0.85464 1.85638,0.72803 2.02124,0.32753 2.29585,-5.57716 0.16271,-3.49883 -0.1611,-7.14592 -0.71959,-8.10464 z m -29.07626,14.75687 c 0,-0.55 -0.47656,-1 -1.05902,-1 -0.58246,0 -0.7809,0.45 -0.44098,1 0.33992,0.55 0.81648,1 1.05902,1 0.24254,0 0.44098,-0.45 0.44098,-1 z m 55,9.15499 c 0,-5.1765 -7.74989,-5.92171 -9.09959,-0.875 -0.71933,2.68966 -0.67262,2.72001 4.18607,2.72001 4.10927,0 4.91352,-0.30199 4.91352,-1.84501 z m 12.98635,1.09501 c -0.0264,-3.37636 -1.23301,-6.25 -2.62442,-6.25 -1.77245,0 -3.82149,4.36002 -3.02477,6.43623 0.85385,2.22511 5.66676,2.06645 5.64919,-0.18623 z m -30,0.5 c -0.0347,-3.17875 -1.37015,-5.75 -2.98635,-5.75 -2.11718,0 -3.36084,3.86028 -1.8357,5.69796 1.3783,1.66076 4.84003,1.69812 4.82205,0.052 z m -15.19396,0.2491 c 0.16081,-1.3755 -0.353,-3.38352 -1.14179,-4.46226 -1.2201,-1.66859 -1.67422,-1.76212 -3.04239,-0.62665 -1.62583,1.34932 -2.20531,6.15938 -0.89936,7.46533 1.58518,1.58518 4.79585,0.0843 5.08354,-2.37642 z m 60.01545,-0.28406 c 0.16931,-1.9967 -0.21212,-4.60192 -0.84762,-5.78937 -1.05363,-1.96872 -1.29487,-2.01959 -2.73725,-0.57721 -2.29388,2.29388 -2.5646,8.35137 -0.42879,9.59433 2.64927,1.54179 3.67947,0.71331 4.01366,-3.22775 z m -76.38963,6.67797 c 2.55198,-0.97928 1.64555,-12.39301 -0.98419,-12.39301 -1.93984,0 -2.7896,1.89743 -3.08341,6.88493 -0.354,6.00942 0.33384,6.94086 4.0676,5.50808 z m 91.58179,-5.98341 c 0,-5.08366 -0.35287,-6.60778 -1.64461,-7.10346 -2.62713,-1.00813 -4.41798,2.44515 -3.93717,7.592 0.40737,4.36075 2.82419,7.68811 4.7291,6.51081 0.46897,-0.28984 0.85268,-3.43955 0.85268,-6.99935 z m -109.10472,8.66928 c -0.0576,-1.96838 -0.21794,-6.50388 -0.35631,-10.07888 -0.34825,-8.99783 -0.0428,-9.83566 3.49603,-9.59065 2.94222,0.20369 3.65629,-0.38491 2.215,-1.82581 -0.4125,-0.41239 -0.80847,-4.98868 -0.87993,-10.16953 -0.0715,-5.18086 -0.61097,-9.99935 -1.1989,-10.70777 -0.58794,-0.70842 -1.53904,-3.38554 -2.11356,-5.94917 -1.62444,-7.24859 0.55922,-11.13226 10.62627,-18.89893 4.69096,-3.61905 5.17002,-4.33863 4.64296,-6.97392 -0.39858,-1.9929 -0.0553,-3.52682 1.06684,-4.76674 0.92614,-1.02337 1.3767,-2.55228 1.02344,-3.47286 -0.3471,-0.90454 -0.2933,-2.43212 0.11957,-3.39462 0.41286,-0.9625 0.79851,-2.61053 0.85699,-3.66229 0.20845,-3.74914 2.34332,-2.63767 3.11858,1.62362 0.42914,2.35877 0.69713,4.8406 0.59555,5.51518 -0.10158,0.67458 0.54738,2.3438 1.44213,3.70936 1.05009,1.60265 1.40777,3.48021 1.00891,5.29617 -0.5635,2.5656 -0.16422,3.07547 4.53468,5.79064 6.51314,3.76349 11.90647,10.57543 11.90647,15.03822 0,1.80031 -0.90143,5.37625 -2.00319,7.94653 -1.10175,2.57029 -1.74978,5.08326 -1.44006,5.58439 0.8307,1.34411 5.37519,-2.30185 5.41183,-4.34182 0.0336,-1.87117 2.03142,-2.50444 2.03142,-0.64392 0,0.60834 1.0649,1.94373 2.36644,2.96752 2.19088,1.72334 2.34405,2.45667 2.06473,9.88467 -0.16594,4.41278 -0.55325,8.43024 -0.86069,8.9277 -0.67142,1.08638 1.425,1.99536 3.18575,1.38131 0.69093,-0.24095 0.96262,-0.91317 0.60376,-1.49382 -0.35886,-0.58064 -0.80905,-13.63095 -1.00043,-29.00069 -0.19137,-15.36974 -0.67667,-28.46873 -1.07844,-29.10887 -1.80963,-2.88335 -1.20634,-5.58415 1.94779,-8.71983 1.7991,-1.78857 4.03345,-5.09517 4.96522,-7.34801 0.93177,-2.25283 1.77552,-3.75856 1.875,-3.34606 0.0995,0.4125 0.29337,1.2 0.43087,1.75 0.1375,0.55 0.31586,2.0125 0.39635,3.25 0.0908,1.39536 1.6933,3.34485 4.21895,5.13239 4.06243,2.87519 4.51104,4.42624 2.9263,10.11761 -0.15314,0.55 -0.22515,9.89787 -0.16002,20.77305 l 0.11842,19.77306 2.54313,-1.66633 c 1.39872,-0.91647 3.1807,-2.83935 3.95996,-4.27305 0.87737,-1.61421 1.43208,-2.00907 1.45687,-1.03707 0.022,0.86332 1.10521,2.49582 2.40709,3.62779 2.25849,1.96373 2.34396,2.49939 1.86374,11.68033 -0.44544,8.5159 -0.31165,9.62222 1.16359,9.62222 2.51523,0 2.14612,-18.59844 -0.48405,-24.39013 -1.02652,-2.26043 -1.87629,-6.0711 -1.88837,-8.46816 -0.02,-3.96208 0.46892,-4.84139 5.37785,-9.67251 2.96989,-2.92282 6.80245,-6.03955 8.51679,-6.92607 2.6138,-1.35165 2.95282,-1.9186 2.10005,-3.51202 -0.71017,-1.32696 -0.65504,-2.74947 0.18274,-4.71564 0.65983,-1.54851 1.29589,-3.94047 1.41346,-5.31547 0.56247,-6.57765 1.19375,-8.51704 2.88041,-8.84899 1.45471,-0.28629 1.65607,0.11788 1.12094,2.25 -0.41771,1.66427 -0.24085,2.59899 0.49175,2.59899 0.72694,0 0.93428,1.04883 0.5687,2.87677 -0.35126,1.75627 -0.0228,3.60638 0.84319,4.75 0.78021,1.03027 1.45104,3.44823 1.49075,5.37323 0.0641,3.10747 0.6767,3.88986 5.46223,6.97622 8.06052,5.19852 11.06724,9.43693 10.815,15.24533 -0.11277,2.59686 -0.89821,6.06201 -1.74543,7.70034 -1.0874,2.1028 -1.54039,5.93416 -1.54039,13.02845 0,9.16453 0.16537,10.04966 1.87756,10.04966 3.24238,0 3.82009,2.17424 3.71988,14 l -0.0974,11.5 -19.5,-0.2955 c -10.725,-0.16253 -21.525,-0.688 -24,-1.16771 -3.43799,-0.66636 -4.87259,-0.53762 -6.07874,0.5455 -2.09967,1.8855 -5.92126,1.83239 -5.92126,-0.0823 0,-1.13333 -1.22222,-1.5 -5,-1.5 -3.77778,0 -5,0.36667 -5,1.5 0,1.85788 -6.62845,2.11465 -7.23985,0.28046 -0.44923,-1.34769 -7.97106,-1.41001 -10.02059,-0.083 -0.68176,0.44141 -9.90206,0.83807 -20.48956,0.88145 l -19.25,0.0789 -0.10472,-3.57889 z"
       inkscape:connector-curvature="0"
       inkscape:label="Russia" />
    <path
       style="fill:#000000"
       d="m 379.92017,663.08544 c 0,-1.17351 1.09504,-3.08601 2.43342,-4.25 2.28912,-1.99085 2.44481,-2.7983 2.62554,-13.61635 0.10567,-6.325 0.0631,-11.95 -0.0946,-12.5 -0.1577,-0.55 -0.3267,-3.20937 -0.37554,-5.90972 -0.0969,-5.35667 -0.60912,-5.69933 -8.33881,-5.57845 -1.7875,0.028 -3.26431,-0.30078 -3.2818,-0.7305 -0.0175,-0.42973 -0.68414,-1.64342 -1.48145,-2.69708 -1.26169,-1.66738 -2.44333,-2.09545 -6.90342,-2.50092 -0.50416,-0.0458 -0.60918,-0.39082 -0.23336,-0.76664 0.37582,-0.37582 5.28832,-0.77432 10.91667,-0.88556 10.66029,-0.2107 13.15872,-0.52316 14.44166,-1.8061 0.76726,-0.76726 0.85571,-1.18448 1.13939,-5.37503 0.15797,-2.33366 3.43293,-3.223 4.64523,-1.26145 0.33883,0.54823 -0.0246,0.74465 -0.81598,0.44097 -1.00849,-0.38699 -1.42694,0.20835 -1.42694,2.03016 0,2.07378 0.26881,2.35463 1.375,1.43658 1.08819,-0.90312 1.375,-0.72677 1.375,0.84544 0,3.95171 14.5082,6.91658 21.26837,4.34636 1.35071,-0.51353 3.00518,-0.53703 3.78708,-0.0538 1.14518,0.70776 1.10042,0.96869 -0.25538,1.48896 -0.90414,0.34695 -2.40532,0.74257 -3.33595,0.87916 -0.93063,0.13659 -2.42827,1.20399 -3.32809,2.372 -1.57698,2.047 -4.6166,2.9698 -10.35404,3.14338 l -2.71802,0.0822 0.0626,13.25 c 0.0344,7.2875 0.0202,15.0256 -0.0315,17.19578 -0.0698,2.92924 0.54985,4.6179 2.40543,6.55471 1.37474,1.43492 2.49953,3.37182 2.49953,4.30423 0,1.50677 -1.44556,1.69528 -13,1.69528 -12.60477,0 -13,-0.0649 -13,-2.13365 z"
       id="path3844"
       inkscape:connector-curvature="0"
       inkscape:label="Rio" />
    <path
       id="path3840"
       style="fill:#000000"
       d="m 601.92017,631.99194 c 0,-3.14348 -3.5081,-17.35484 -4.44519,-18.00754 -1.77125,-1.2337 -8.58981,-0.86508 -8.96557,0.48469 -1.7688,6.3536 -3.61788,16.89465 -3.10825,17.71923 0.94755,1.53318 16.51901,1.34805 16.51901,-0.19638 z m -46,32.42715 c 0,-0.44 0.40507,-1.2275 0.90017,-1.75 0.49509,-0.5225 3.42009,-5.52793 6.5,-11.12319 4.17712,-7.58855 5.59983,-11.19183 5.59983,-14.18261 0,-3.19401 0.42682,-4.14489 2.09868,-4.67552 3.9879,-1.26571 12.03549,-23.68403 10.05909,-28.02176 -0.87278,-1.91555 -0.77666,-2.56082 0.4868,-3.26789 3.27535,-1.83297 9.05664,-56.89694 8.07396,-76.9005 -0.4886,-9.94589 -0.33931,-11.49091 1.31328,-13.59184 1.25364,-1.59375 1.98222,-4.46996 2.22369,-8.77854 l 0.35914,-6.40815 0.19268,6.74153 c 0.15782,5.52195 0.55286,6.96646 2.18367,7.98492 1.85681,1.15959 1.94984,1.98574 1.38037,12.25847 -0.70292,12.68017 0.72173,33.10372 4.14131,59.3691 1.89013,14.51787 2.75766,18.62317 4.1507,19.64178 1.48909,1.08885 1.55548,1.53558 0.42977,2.89197 -1.12355,1.3538 -0.92643,2.90294 1.26293,9.92497 3.68,11.80306 6.3776,17.46796 8.66369,18.19353 1.47117,0.46693 1.98024,1.51828 1.98024,4.08963 0,3.59692 3.56265,11.42828 10.07699,22.15111 l 3.79883,6.25299 h -7.44601 -7.446 l -1.60703,-4.01635 c -2.36999,-5.92319 -9.33289,-11.60661 -16.06543,-13.11328 -11.27915,-2.52416 -20.87113,1.74078 -26.81135,11.92129 l -3,5.14149 -6.75,0.0334 c -3.7125,0.0184 -6.75,-0.32655 -6.75,-0.76655 z"
       inkscape:connector-curvature="0"
       inkscape:label="Eiffel tower" />
    <path
       id="path3834"
       style="fill:#000000"
       d="m 647.42017,591.21909 c -1.5808,-1.65 -2.35582,-3 -1.72227,-3 0.63354,0 1.63357,0.9 2.22227,2 1.42663,2.66568 3.16184,2.52108 6,-0.5 1.29175,-1.375 2.80846,-2.5 3.37048,-2.5 0.56202,0 -0.5047,1.575 -2.37048,3.5 -1.86578,1.925 -3.66987,3.5 -4.00908,3.5 -0.3392,0 -1.91012,-1.35 -3.49092,-3 z m 8.97939,12.87966 c 4.57909,-2.70173 6.6972,-6.69296 5.86889,-11.05899 -1.1759,-6.19822 -3.92188,-9.47885 -9.22671,-11.02318 -5.85938,-1.70576 -14.12157,5.45902 -14.12157,12.2459 0,5.86869 5.51052,11.00045 12.69284,11.82043 0.65606,0.0749 2.81001,-0.81797 4.78655,-1.98416 z m -20.19831,32.37034 c -0.0961,-15.8125 -0.36078,-34.68851 -0.58806,-41.94669 -0.34704,-11.0821 -0.17238,-13.28912 1.08999,-13.77354 0.82679,-0.31727 1.23698,-0.84312 0.91154,-1.16856 -0.32545,-0.32544 0.73515,-3.07819 2.35687,-6.11723 1.62172,-3.03903 2.94858,-6.79022 2.94858,-8.33596 0,-5.456 6.64692,-26.24427 8.10359,-25.344 1.37052,0.84703 6.01406,16.51678 6.64033,22.40799 0.37454,3.52322 1.59214,7.06527 3.4189,9.94578 1.56045,2.46057 2.83718,4.99153 2.83718,5.62435 0,0.63282 0.63249,2.45722 1.40552,4.05422 1.03515,2.13849 1.28863,5.67053 0.96192,13.40364 -0.71888,17.01589 -0.68681,62.4841 0.0468,66.39477 l 0.67635,3.60523 h -15.31737 -15.31737 l -0.17481,-28.75 z"
       inkscape:connector-curvature="0"
       inkscape:label="Big Ben" />
    <path
       id="path3830"
       style="fill:#000000"
       d="m 689.20992,603.21909 c 0.28766,-1.1 0.0886,-2 -0.44239,-2 -0.53097,0 -0.68728,-0.45 -0.34736,-1 0.33992,-0.55 0.16803,-1 -0.38197,-1 -0.55,0 -1.27811,0.45 -1.61803,1 -0.33992,0.55 -0.11115,1 0.50837,1 0.67133,0 0.86995,0.80801 0.49163,2 -0.34913,1.1 -0.20694,2 0.31598,2 0.52292,0 1.18611,-0.9 1.47377,-2 z m -7.81208,39.75 c 0.0275,-22.59709 -0.70371,-32.11251 -2.6478,-34.455 -0.59338,-0.71498 -0.80995,-2.64462 -0.48125,-4.28808 0.70526,-3.52633 -1.02015,-18.52466 -2.43528,-21.16885 -0.66035,-1.23388 -0.64343,-1.83807 0.0515,-1.83807 0.56935,0 1.03518,-1.125 1.03518,-2.5 0,-3.99261 2.65674,-3.00097 3.34893,1.25 0.33584,2.0625 0.24304,3.87556 -0.20622,4.02902 -0.69128,0.23613 0.1189,7.49718 1.19623,10.72098 0.1838,0.55 0.68382,3.1375 1.11116,5.75 0.46258,2.82789 1.30222,4.75 2.07496,4.75 1.3519,0 1.44003,-1.66618 0.19358,-3.65976 -1.98179,-3.16965 1.11512,-4.42448 8.47394,-3.43351 0.38092,0.0513 0.44748,1.10577 0.14791,2.34327 -1.27575,5.26992 -1.07914,7.67655 0.76335,9.34397 1.04289,0.9438 1.89616,2.32567 1.89616,3.07081 0,0.74513 0.87415,2.10327 1.94256,3.01807 1.26551,1.08356 1.67811,2.2129 1.18379,3.24021 -1.09107,2.26754 -0.81358,6.34786 0.46058,6.77258 0.59781,0.19927 1.8951,-1.56323 2.88287,-3.91666 1.31588,-3.13517 1.91752,-3.7913 2.25073,-2.45458 0.25013,1.00343 -0.17266,2.57843 -0.93952,3.5 -0.76686,0.92158 -1.92165,2.9131 -2.56621,4.4256 -0.64456,1.5125 -1.53863,2.75 -1.98684,2.75 -0.4482,0 -0.86515,7.425 -0.92655,16.5 -0.0627,9.26248 0.28537,16.5 0.79347,16.5 0.49782,0 0.79124,1.13326 0.79124,1.68326 0,0.59479 -3.64446,0.40754 -9.16084,0.37368 l -9.27473,-0.0569 z"
       inkscape:connector-curvature="0"
       inkscape:label="Liberty statue"
       sodipodi:nodetypes="sssssscsscsccssssccsccccsscssscsscssscc" />
    <path
       id="path3756"
       style="fill:#000000"
       d="m 817.95389,620.54123 c 0,-0.55 -0.45,-1 -1,-1 -0.55,0 -1,0.45 -1,1 0,0.55 0.45,1 1,1 0.55,0 1,-0.45 1,-1 z m -9,0.55902 c 0,-0.24254 -0.45,-0.7191 -1,-1.05902 -0.55,-0.33992 -1,-0.14148 -1,0.44098 0,0.58246 0.45,1.05902 1,1.05902 0.55,0 1,-0.19844 1,-0.44098 z m 19,0.44098 c 0,-0.55 -0.47656,-1 -1.05902,-1 -0.58246,0 -0.7809,0.45 -0.44098,1 0.33992,0.55 0.81648,1 1.05902,1 0.24254,0 0.44098,-0.45 0.44098,-1 z m -29,1 c 0,-0.55 -0.45,-1 -1,-1 -0.55,0 -1,0.45 -1,1 0,0.55 0.45,1 1,1 0.55,0 1,-0.45 1,-1 z m 26,9 c 0,-2 -0.5,-3 -1.5,-3 -1,0 -1.5,1 -1.5,3 0,2 0.5,3 1.5,3 1,0 1.5,-1 1.5,-3 z m -5.5,0 c 0,-1.55981 -0.64604,-2.59703 -1.75,-2.80963 -1.3673,-0.26332 -1.75,0.3511 -1.75,2.80963 0,2.45853 0.3827,3.07295 1.75,2.80963 1.10396,-0.2126 1.75,-1.24982 1.75,-2.80963 z m -5.5,0 c 0,-2 -0.5,-3 -1.5,-3 -1,0 -1.5,1 -1.5,3 0,2 0.5,3 1.5,3 1,0 1.5,-1 1.5,-3 z m -10.18358,0.32712 c -0.46088,-3.89313 -2.81642,-4.23642 -2.81642,-0.41045 0,2.13218 0.48321,3.08333 1.56642,3.08333 1.11013,0 1.47425,-0.77861 1.25,-2.67288 z m 31.18358,1.2319 c 0,-2.68831 -1.67645,-4.28257 -3.05438,-2.90464 -1.25604,1.25604 0.0223,5.34562 1.67101,5.34562 0.80001,0 1.38337,-1.02935 1.38337,-2.44098 z m -5.18664,-1.38603 c 0.23154,-2.34455 -0.0948,-3.17299 -1.25,-3.17299 -1.12696,0 -1.56336,1.00027 -1.56336,3.58333 0,4.51831 2.36062,4.174 2.81336,-0.41034 z m -20.98518,-0.80117 c -0.1805,-1.5795 -0.77818,-2.87182 -1.32818,-2.87182 -1.21473,0 -1.89165,4.037 -1.0463,6.23994 0.96441,2.51322 2.75614,-0.0283 2.37448,-3.36812 z m -13.3862,4.72206 c 0.30801,-0.49837 1.45956,-0.67088 2.55902,-0.38337 1.61387,0.42204 1.999,0.03 1.999,-2.03486 0,-2.6956 -2.10471,-4.86152 -2.77374,-2.85442 -0.23583,0.70748 -1.35399,0.93383 -2.80902,0.56864 -2.16801,-0.54413 -2.41724,-0.28619 -2.41724,2.50172 0,3.00663 2.11035,4.3569 3.44198,2.20229 z m 28.55802,7.40612 c 0,-2.83333 -0.38095,-3.5 -2,-3.5 -1.52941,0 -2,0.66667 -2,2.83333 0,3.13091 0.66289,4.16667 2.66667,4.16667 0.85714,0 1.33333,-1.25 1.33333,-3.5 z m -5,0 c 0,-2.7674 -0.39624,-3.5 -1.89301,-3.5 -1.04116,0 -2.13538,0.6316 -2.4316,1.40355 -0.92843,2.41945 0.45741,5.59645 2.44124,5.59645 1.48576,0 1.88337,-0.73891 1.88337,-3.5 z m -5.81355,0.0286 c 0.42611,-3.64992 -1.07403,-5.24107 -3.06459,-3.25051 -1.22973,1.22973 -1.51296,4.99743 -0.45519,6.05519 1.61617,1.61618 3.14598,0.39718 3.51978,-2.80468 z m -5.37608,-0.27033 c -0.21691,-2.61495 -0.83735,-3.84155 -2.06037,-4.07333 -1.3891,-0.26324 -1.75,0.37091 -1.75,3.07502 0,3.71237 0.59121,4.73999 2.72703,4.73999 0.99858,0 1.30571,-1.06079 1.08334,-3.74168 z m -5.41037,1.99168 c -0.055,-0.6875 -0.1675,-2.09695 -0.25,-3.13212 -0.11905,-1.49381 -0.97524,-1.8935 -4.15,-1.93732 -3.88131,-0.0536 -4,0.0442 -4,3.29343 0,3.2982 0.064,3.3462 4.25,3.18732 2.70961,-0.10284 4.21376,-0.61436 4.15,-1.41131 z m 32.4,1.55 c 0.93333,-0.93333 1.2,-0.93333 1.2,0 0,0.66667 1.33333,1.2 3,1.2 2.68962,0 3,-0.32145 3,-3.10699 0,-2.35092 -0.36501,-2.96692 -1.5,-2.53138 -0.825,0.31658 -1.5,0.14476 -1.5,-0.38181 0,-0.52658 -1.0125,-0.89803 -2.25,-0.82544 -1.2375,0.0726 -2.91432,-0.045 -3.72626,-0.2612 -1.58093,-0.42106 -2.60692,3.14468 -1.63421,5.67955 0.66869,1.74257 1.81855,1.81919 3.41047,0.22727 z m -4.98963,-2.55 c -0.20929,-2.52873 -0.79888,-3.75 -1.81037,-3.75 -1.89396,0 -2.54601,4.13717 -0.95432,6.05504 2.04871,2.46854 3.08805,1.602 2.76469,-2.30504 z m 16.17432,12 c -0.008,-0.9625 -0.45842,-2.425 -1,-3.25 -0.87528,-1.33333 -1.0941,-1.33333 -1.96938,0 -0.65846,1.00305 -0.98976,1.08588 -1,0.25 -0.008,-0.6875 -0.46531,-1.25 -1.01531,-1.25 -0.55,0 -1,1.35 -1,3 0,2.66667 0.33333,3 3,3 2.19631,0 2.9959,-0.46882 2.98469,-1.75 z m -22.16827,-0.99145 c -0.19084,-1.65345 -1.01094,-2.87316 -2.06642,-3.07332 -1.35905,-0.25774 -1.75,0.35471 -1.75,2.74145 0,2.43958 0.42611,3.07332 2.06642,3.07332 1.663,0 2.00465,-0.53521 1.75,-2.74145 z m -5.83173,0.49145 c -0.0203,-2.97473 -1.48501,-5.17685 -2.87289,-4.3191 -0.61149,0.37792 -1.1118,2.01058 -1.1118,3.62812 0,2.27431 0.45336,2.94098 2,2.94098 1.41194,0 1.9955,-0.66156 1.98469,-2.25 z m -5.98469,-0.62756 c 0,-3.48352 -2.43144,-6.04646 -3.38322,-3.56618 -1.32472,3.45218 -0.68255,6.44374 1.38322,6.44374 1.53664,0 2,-0.66667 2,-2.87756 z m -5.39227,-1.54922 c -0.56863,-2.2656 -3.58568,-3.78456 -3.62138,-1.82322 -0.008,0.4125 -0.27427,1.72146 -0.59279,2.90881 -0.42081,1.56865 -0.0754,2.27321 1.26366,2.57731 2.64386,0.60044 3.69349,-0.70263 2.95051,-3.6629 z m -6.10773,1.42678 c 0,-1.55981 -0.64604,-2.59703 -1.75,-2.80963 -1.3673,-0.26332 -1.75,0.3511 -1.75,2.80963 0,2.45853 0.3827,3.07295 1.75,2.80963 1.10396,-0.2126 1.75,-1.24982 1.75,-2.80963 z m -4.68358,0.25855 c -0.19084,-1.65345 -1.01094,-2.87316 -2.06642,-3.07332 -1.35905,-0.25774 -1.75,0.35471 -1.75,2.74145 0,2.43958 0.42611,3.07332 2.06642,3.07332 1.663,0 2.00465,-0.53521 1.75,-2.74145 z m 42.99694,0.56846 c -0.40865,-4.13783 -2.81336,-5.0584 -2.81336,-1.07701 0,1.60417 0.3,3.21667 0.66667,3.58333 1.5291,1.52911 2.44017,0.4654 2.14669,-2.50632 z m -3.81336,0.37299 c 0,-2.69895 -1.53911,-5.2 -3.2,-5.2 -0.44,0 -0.8,1.8 -0.8,4 0,3.33333 0.33333,4 2,4 1.52381,0 2,-0.66667 2,-2.8 z m -5.19944,-0.36271 c 0.37988,-3.17054 -2.47659,-5.96156 -3.86146,-3.77299 -1.31934,2.085 -1.14063,5.68842 0.3109,6.26903 2.15537,0.86215 3.23951,0.10001 3.55056,-2.49604 z m -55.12326,8.03669 c -0.33649,-1.28672 -0.17653,-2.77475 0.35545,-3.30673 0.53199,-0.53199 0.97259,-4.13975 0.97912,-8.01725 0.007,-3.8775 0.67619,-9.525 1.48813,-12.55 0.81194,-3.025 1.49161,-6.85 1.51037,-8.5 0.0188,-1.65 0.8116,-3.96611 1.76187,-5.14692 2.40052,-2.9829 12.9303,-8.6812 14.75086,-7.98259 2.34466,0.89973 7.4769,-0.47 7.4769,-1.99549 0,-0.75625 0.5625,-1.38879 1.25,-1.40565 0.6875,-0.0169 5.43605,-0.2702 10.55234,-0.56298 9.70565,-0.55541 19.16076,1.37406 19.22893,3.924 0.0172,0.6433 1.13809,3.41963 2.49086,6.16963 2.83178,5.75662 3.10562,7.67812 0.97787,6.86163 -1.13499,-0.43554 -1.5,0.18046 -1.5,2.53138 0,3.32707 2.94478,4.63152 3.06339,1.35699 0.0506,-1.39609 0.23863,-1.31567 0.92992,0.39767 0.47659,1.18122 1.30891,2.42108 1.8496,2.75524 0.54069,0.33417 1.28828,2.41413 1.66132,4.62215 0.37305,2.20802 1.27072,4.60703 1.99484,5.33115 2.03183,2.03183 3.37814,8.14036 2.77886,12.60833 l -0.0858,4.94648 -16.57384,-0.0811 c -8.86508,0.018 -24.36483,0.0283 -35.42665,0.15123 l -20.90259,0.23232 -0.61179,-2.33949 z"
       inkscape:connector-curvature="0"
       inkscape:label="Coliseum"
       sodipodi:nodetypes="sssssssssssssssssssssssssscscsssssssssssssscssccsccccsccscssssssscsssscsccssccccsccsssscscccscscccsccssscccsscccsscscssscccsscscsccssccsccssssscccccscscscscscscsccccssccsccc" />
    <path
       id="path9170"
       style="display:none;fill:#000000"
       d="m 740.19459,564.54766 c 1.59552,-1.02415 1.63309,-8.90124 0.05,-10.48433 -2.14641,-2.14641 -5.76485,-1.42265 -6.82475,1.3651 -1.32563,3.48667 -1.23202,9.18264 0.15852,9.64616 1.83474,0.61158 5.26861,0.3381 6.61623,-0.52693 z m 16.07368,-1.5727 c 0.66279,-6.93829 -1.79744,-10.25803 -4.8639,-6.56317 -1.25219,1.50879 -2.07088,8.14376 -1.20415,9.75885 0.23828,0.44402 1.62825,0.66902 3.08881,0.5 2.21277,-0.25607 2.70953,-0.87229 2.97924,-3.69568 z m 3.17632,8.0498 c 0,-0.61827 -1.61009,-1.0039 -3.75,-0.89817 -2.0625,0.10191 -4.33221,-0.17938 -5.0438,-0.62508 -0.72547,-0.45439 -1.89437,-0.31194 -2.66098,0.32429 -0.93355,0.77478 -1.57148,0.80406 -2.01136,0.0923 -0.35431,-0.57328 -2.40939,-0.90269 -4.56685,-0.73203 -2.16258,0.17107 -4.08399,-0.16825 -4.28221,-0.75623 -0.23747,-0.70439 -0.89387,-0.62561 -1.93315,0.23203 -1.13126,0.93354 -1.7676,0.98465 -2.26377,0.18182 -0.3796,-0.6142 -1.35226,-0.86266 -2.16147,-0.55214 -1.69256,0.64951 -5.32641,-1.03112 -5.32641,-2.4634 0,-0.53065 1.09844,-0.96482 2.44098,-0.96482 1.34254,0 2.69844,-0.41657 3.01311,-0.92571 0.31467,-0.50915 0.67872,-5.1704 0.80902,-10.35836 l 0.23689,-9.43264 6,0.41889 c 3.3,0.23038 7.125,0.57964 8.5,0.77612 1.375,0.19648 4.82235,0.39424 7.66078,0.43947 l 5.16078,0.0822 -0.014,9.25 c -0.0185,12.1592 -0.0911,11.75 2.08548,11.75 2.22108,0 3.63047,2.87652 2.13977,4.36722 -0.71037,0.71037 -1.03278,0.61995 -1.03278,-0.28966 0,-1.06213 -0.29527,-1.0774 -1.5,-0.0776 -0.9777,0.81142 -1.5,0.86763 -1.5,0.16143 z m -8.92105,13.017 c -0.0462,-0.77421 -1.01083,-1.20116 -2.32895,-1.03085 -1.2375,0.15989 -2.89844,-0.11258 -3.69098,-0.60549 -0.93083,-0.57891 -1.58063,-0.47727 -1.83541,0.28709 -0.21694,0.6508 -0.9185,0.85371 -1.55902,0.45091 -2.02249,-1.27188 -7.6623,-1.25232 -7.69639,0.0267 -0.018,0.67316 -0.59972,0.44565 -1.3348,-0.52198 -0.99182,-1.30559 -1.58126,-1.43694 -2.4682,-0.55 -0.88693,0.88693 -1.1652,0.86253 -1.1652,-0.10219 0,-0.79415 -0.71601,-1.04013 -1.91757,-0.65877 -1.4638,0.46459 -1.83686,0.18474 -1.57651,-1.18262 0.18758,-0.98517 0.37549,-2.15528 0.41757,-2.60024 0.0421,-0.44496 0.48898,-0.55409 0.99312,-0.24252 0.50413,0.31157 5.79163,0.82354 11.75,1.13771 5.95836,0.31418 13.53339,0.72844 16.83339,0.92059 3.3,0.19216 6.5625,0.38174 7.25,0.42131 0.6875,0.0396 1.25,1.13505 1.25,2.43442 0,1.94799 -0.45411,2.31263 -2.5883,2.07836 -1.42357,-0.15627 -2.84467,-0.54048 -3.15799,-0.85381 -0.31333,-0.31333 -1.1736,-0.0685 -1.9117,0.54408 -0.98712,0.81924 -1.34201,0.81694 -1.34201,-0.009 0,-1.53002 -2.71067,-1.42643 -3.33772,0.12756 -0.38475,0.95351 -0.52311,0.93654 -0.58333,-0.0716 z m 3.92105,13.5127 c 0,-1.96293 -2.06173,-2.2294 -3.8,-0.49113 -0.93333,0.93333 -1.2,0.93333 -1.2,0 0,-1.60105 -2.99144,-1.55169 -3.03041,0.05 -0.0184,0.75648 -0.40387,0.61083 -0.97631,-0.36889 -0.68171,-1.16671 -2.1396,-1.54708 -5.21959,-1.36183 -2.35053,0.14138 -4.79987,-0.16757 -5.44297,-0.68656 -0.78473,-0.63329 -1.5147,-0.34986 -2.21959,0.86183 -0.58954,1.0134 -1.06365,1.24674 -1.08072,0.5319 -0.0205,-0.85871 -1.1705,-1.14792 -3.53041,-0.88786 -3.27304,0.36069 -3.5,0.2005 -3.5,-2.47032 0,-2.72709 0.16929,-2.83228 3.75,-2.33026 5.50168,0.77134 23.75647,2.11006 33,2.42007 0.6875,0.0231 1.25,1.22202 1.25,2.66436 0,2.21768 -0.23152,2.43031 -1.5,1.37756 -1.24189,-1.03068 -1.50523,-0.9227 -1.53041,0.62756 -0.0293,1.80518 -0.0704,1.80363 -1.14235,-0.0431 -1.08081,-1.86196 -1.14993,-1.86361 -2.46959,-0.0589 -1.20973,1.6544 -1.35765,1.67244 -1.35765,0.16557 z m 6.59793,13.46732 c -0.28606,-0.46285 -2.00012,-0.7433 -3.80902,-0.62321 -1.8089,0.12009 -3.81135,-0.19806 -4.44988,-0.70701 -0.72935,-0.58132 -1.41306,-0.51746 -1.83903,0.17177 -0.44457,0.71933 -1.08095,0.76274 -1.84809,0.12607 -0.64353,-0.53407 -2.74096,-0.87569 -4.66098,-0.75913 -1.92001,0.11655 -4.05343,-0.19843 -4.74093,-0.69996 -0.78722,-0.57427 -1.80096,-0.45462 -2.73817,0.3232 -1.20428,0.99947 -1.60487,0.93094 -2.09996,-0.35924 -0.45233,-1.17875 -1.07277,-1.3476 -2.38035,-0.64781 -0.9727,0.52058 -2.07719,0.63787 -2.45441,0.26065 -0.37722,-0.37722 -1.1045,-0.0239 -1.61617,0.78518 -0.63002,0.99621 -0.93526,1.06756 -0.94563,0.22104 -0.008,-0.6875 -0.69031,-1.25 -1.51531,-1.25 -0.91005,0 -1.5,-0.92917 -1.5,-2.36249 0,-1.99216 0.43107,-2.30974 2.75,-2.02602 4.40155,0.53854 25.79415,2.06453 31.93312,2.27788 2.86586,0.0996 3.17461,0.40963 3.09782,3.11063 -0.0892,3.1386 -0.31861,3.55709 -1.18301,2.15845 z m -0.97704,13.03715 c -0.38967,-0.63049 -2.02447,-0.99312 -3.63289,-0.80585 -1.60843,0.18728 -3.20106,0.0637 -3.53919,-0.27462 -0.33813,-0.33832 -2.48993,-0.70872 -4.78179,-0.82311 -12.6846,-0.63311 -17.49417,-1.06716 -18.4636,-1.6663 -0.59427,-0.36728 -1.54447,0.12918 -2.11155,1.10325 -0.97408,1.67317 -1.03273,1.66842 -1.06146,-0.086 -0.0202,-1.2341 -0.53355,-1.66391 -1.53041,-1.28138 -1.08048,0.41462 -1.5,-0.10605 -1.5,-1.86163 0,-1.56365 0.45672,-2.26197 1.27422,-1.94826 0.70083,0.26893 4.86333,0.65734 9.25,0.86314 4.38668,0.2058 7.97578,0.46894 7.97578,0.58476 0,0.11581 4.207,0.34277 9.34889,0.50435 5.14188,0.16158 9.7681,0.713 10.28048,1.22538 0.5481,0.5481 0.57519,1.89507 0.0658,3.27208 -0.55157,1.49102 -1.12294,1.92443 -1.57428,1.19415 z m -12.09704,11.84299 c -0.39938,-0.64622 -1.41267,-0.9115 -2.25175,-0.58951 -0.83908,0.32198 -2.17786,0.0441 -2.97506,-0.61752 -1.14043,-0.94648 -1.63018,-0.91056 -2.29704,0.16844 -0.67744,1.09611 -1.14609,1.12364 -2.33476,0.13714 -1.05818,-0.87821 -1.68278,-0.91777 -2.16524,-0.13714 -0.4892,0.79153 -1.05885,0.78108 -2.04522,-0.0375 -0.75194,-0.62406 -1.80579,-0.86357 -2.34188,-0.53225 -0.53609,0.33132 -1.26189,0.13772 -1.6129,-0.43022 -0.35101,-0.56794 -1.1696,-0.69968 -1.8191,-0.29274 -1.94107,1.21615 -4.14061,0.89155 -4.79251,-0.70726 -0.7482,-1.83496 0.0164,-4.17686 1.13751,-3.48399 1.00552,0.62144 17.0047,1.7128 35.7129,2.4361 0.68729,0.0266 1.15002,1.1205 1.03939,2.45722 -0.16255,1.96412 -0.66864,2.34642 -2.73879,2.0689 -1.39667,-0.18727 -2.5394,-0.40247 -2.5394,-0.47826 0,-0.78259 -6.10309,-0.64221 -6.59373,0.15166 -0.45075,0.72933 -0.88367,0.69392 -1.38242,-0.11307 z m 4.97615,10.96136 c -0.33992,-0.55 -1.06803,-1 -1.61803,-1 -0.55,0 -0.72189,0.45 -0.38197,1 0.33992,0.55 1.06803,1 1.61803,1 0.55,0 0.72189,-0.45 0.38197,-1 z m -13.5,-0.5 c 0,-0.825 -0.42344,-1.5 -0.94098,-1.5 -1.26098,0 -2.1641,1.56159 -1.36517,2.36052 1.12619,1.12618 2.30615,0.68589 2.30615,-0.86052 z m 6,8.5 c 0,-1.65 -0.45,-3 -1,-3 -0.55,0 -1,1.35 -1,3 0,1.65 0.45,3 1,3 0.55,0 1,-1.35 1,-3 z m -7,-0.059 c 0,-1.7847 -0.41658,-2.80156 -1,-2.44098 -0.55,0.33992 -1,1.71648 -1,3.05902 0,1.34254 0.45,2.44098 1,2.44098 0.55,0 1,-1.37656 1,-3.05902 z m -7,0.059 c 0,-1.65 -0.45,-3 -1,-3 -0.55,0 -1,1.35 -1,3 0,1.65 0.45,3 1,3 0.55,0 1,-1.35 1,-3 z m 21,1 c 0,-1.65 -0.38152,-3 -0.84782,-3 -0.4663,0 -0.8862,1.35 -0.93312,3 -0.0469,1.65 0.33461,3 0.84782,3 0.51322,0 0.93312,-1.35 0.93312,-3 z m -31.69166,8.95816 c -0.61253,-0.9911 -0.39826,-6.05693 0.28934,-10.20816 0.40632,-2.45313 0.23746,-3.75 -0.48827,-3.75 -0.61018,0 -1.10941,-0.92656 -1.10941,-2.05902 0,-1.13246 0.45,-1.7809 1,-1.44098 0.55,0.33992 1,-0.057 1,-0.88197 0,-0.825 -0.5625,-1.86115 -1.25,-2.30255 -1.53035,-0.98255 4.48412,-2.01291 8.52518,-1.46047 2.05634,0.28111 2.51188,0.69664 1.75868,1.60419 -0.55908,0.67365 -0.70014,1.54119 -0.31347,1.92786 0.38668,0.38667 1.39739,-0.21748 2.24604,-1.34255 1.2991,-1.72226 2.04909,-1.90045 4.74485,-1.12731 1.76102,0.50505 4.04821,0.69695 5.08265,0.42644 1.43972,-0.3765 1.86031,0.0295 1.79343,1.73105 -0.048,1.22259 0.54338,2.44118 1.31428,2.70798 1.01269,0.35048 1.24679,-0.10705 0.84362,-1.64879 -0.51218,-1.95858 0.43639,-2.6159 3.33291,-2.30958 0.318,0.0336 2.92932,0.16843 5.80293,0.29955 2.87361,0.13112 5.4963,0.67778 5.8282,1.2148 0.35666,0.57709 -0.27841,0.74579 -1.55293,0.41249 -1.66833,-0.43627 -2.15637,-0.11908 -2.15637,1.4015 0,1.08097 0.45,1.68728 1,1.34736 0.5694,-0.35191 1,0.50929 1,2 0,1.43992 -0.39854,2.37172 -0.88565,2.07067 -1.20071,-0.74208 -2.02192,3.96946 -0.97863,5.61468 0.66426,1.04753 0.83677,1.01712 0.84897,-0.14964 0.013,-1.24635 0.24722,-1.23237 1.57353,0.0939 1.00259,1.00259 1.33831,2.43443 0.9415,4.01546 l -0.61673,2.45724 -19.51865,-0.0215 c -10.73526,-0.0118 -19.67691,0.27367 -19.89495,-0.0791 z"
       inkscape:connector-curvature="0"
       inkscape:label="Pisa"
       sodipodi:nodetypes="cssccsccssccccccccccssccccscccssscccccccccssscscccccscccssccssscccccccsscsccccscscccccsscsccsscsccccsscsccscssssccccccccccssccccccsccssssssscssssssscsssssssssscssccssssccscccccsccsccsssccccccccc" />
    <path
       id="path4356"
       style="display:inline;opacity:0.98000004;fill:#ffffff;fill-opacity:1;stroke-width:0.18462104"
       d="m 644.91746,607.09388 c -0.4168,0.009 -0.47338,0.10007 -0.53331,0.32922 -0.0554,0.21229 -0.34198,0.46996 -0.63644,0.57261 -0.45362,0.15812 -0.5351,0.28573 -0.5351,0.83476 0,0.57886 -0.0936,0.70204 -0.87696,1.15461 -1.0718,0.61919 -1.14786,0.72194 -1.15136,1.55919 -0.004,0.98322 0.67186,1.64211 1.68431,1.64211 0.5078,0 0.91526,-0.12183 1.16289,-0.34798 0.5475,-0.49991 1.08586,-0.61567 1.48995,-0.32019 0.34325,0.25099 0.33974,0.31357 -0.15072,2.81655 -0.60016,3.0627 -0.61504,3.72826 -0.1139,5.05437 0.21047,0.55704 0.54271,1.46982 0.73848,2.02829 0.19574,0.55848 0.43719,1.18159 0.53656,1.38467 0.60317,1.23283 0.59654,1.29772 -0.38151,3.63869 -1.44732,3.46413 -2.8469,5.44642 -6.19094,8.76878 -3.31887,3.29738 -6.45426,5.42391 -10.59336,7.18437 -1.51429,0.64405 -1.61931,0.60301 -1.40088,-0.5481 0.0733,-0.38632 0.29587,-0.68716 0.66313,-0.89607 0.44887,-0.25532 0.55313,-0.43609 0.55313,-0.96061 0,-0.35535 -0.0947,-0.85342 -0.21022,-1.10701 -0.30455,-0.66836 -2.00523,-1.18586 -2.00523,-0.61011 0,0.2013 -2.02819,1.36189 -2.09898,1.20113 -0.0587,-0.13311 -0.96564,-2.64598 -1.71676,-4.75652 -0.45049,-1.26581 -0.99297,-2.58274 -1.20545,-2.92654 -0.32036,-0.51834 -0.34221,-0.65307 -0.12868,-0.78825 0.1416,-0.0896 0.32438,-0.16447 0.40639,-0.16585 0.0819,-10e-4 0.12357,-0.35598 0.0923,-0.78754 -0.0492,-0.68198 -0.11699,-0.79126 -0.51816,-0.8362 -1.18651,-0.13284 -1.29235,-0.20472 -1.29235,-0.87514 0,-0.44817 -0.0838,-0.64258 -0.27694,-0.64258 -0.15231,0 -0.27623,-0.10383 -0.27548,-0.23078 10e-4,-0.12693 -0.34643,-1.17071 -0.77129,-2.31965 l -0.77238,-2.08889 1.30929,-1.30928 1.30894,-1.30931 1.35437,-0.11284 c 1.5583,-0.13015 1.81591,-0.24657 1.81591,-0.82033 0,-0.44244 -0.19933,-0.73601 -0.89642,-1.32119 -0.37909,-0.31822 -0.8155,-0.37907 -3.4155,-0.47669 -1.64576,-0.0618 -4.18767,-0.30466 -5.67564,-0.54198 -2.28955,-0.36513 -2.78101,-0.39421 -3.26441,-0.194 -0.77705,0.32188 -1.14847,1.18555 -1.14847,2.66873 0,1.37308 0.2504,1.74531 1.56929,2.33372 0.40615,0.18118 0.88306,0.50445 1.05975,0.71829 0.23673,0.28648 0.53232,0.38871 1.12396,0.38871 0.68733,0 0.83489,0.0698 1.0237,0.48428 0.1983,0.43516 0.29225,0.47266 0.92995,0.37069 l 0.70966,-0.11364 0.42513,1.33706 c 0.23377,0.73539 0.70058,2.02723 1.03776,2.87065 0.7154,1.78942 0.73885,1.99087 0.24414,2.12026 -0.7534,0.197 -0.34,1.79248 0.46442,1.79248 0.34361,0 0.47688,0.12128 0.55819,0.5077 0.0587,0.27924 0.2606,0.98571 0.44823,1.57001 l 0.3411,1.06264 -0.46443,0.11645 c -0.25535,0.0641 -0.51746,0.0344 -0.58271,-0.0657 -0.0653,-0.10007 -0.45096,-0.39165 -0.85713,-0.64796 -0.40616,-0.25633 -1.02925,-0.72422 -1.38466,-1.03994 -0.3554,-0.31572 -0.70577,-0.57555 -0.77851,-0.57695 -0.0727,-10e-4 -0.65427,-0.34173 -1.29234,-0.75544 -1.40648,-0.91192 -3.53657,-1.92398 -5.04354,-2.39645 -3.38865,-1.06245 -8.25897,-0.96915 -11.80927,0.22609 -1.47902,0.49794 -1.82386,0.54792 -3.13855,0.45578 -0.81233,-0.057 -1.73243,-0.20246 -2.04454,-0.32344 -0.66908,-0.25938 -1.55558,-0.0876 -1.55558,0.30143 0,0.15039 -0.16615,0.27333 -0.36923,0.27333 -0.30342,0 -0.3695,0.12344 -0.37033,0.69233 -4.6e-4,0.38079 -0.076,0.98311 -0.16767,1.33851 -0.0916,0.3554 -0.2201,1.16542 -0.28523,1.80006 l -0.11834,1.15387 h 0.66313 c 1.20472,0 1.25519,0.31228 0.26107,1.60931 -1.23489,1.61115 -2.3067,3.88146 -2.8472,6.03011 -0.6008,2.38834 -0.65,6.14059 -0.10812,8.25458 0.49883,1.94639 1.0696,3.50364 1.49679,4.08403 0.97523,1.66534 0.87126,1.43125 1.47588,2.31136 0.61777,0.91853 2.55644,2.81295 3.54242,3.46129 0.43777,0.28786 1.00899,0.66756 1.26928,0.84377 0.26026,0.17622 0.88337,0.48424 1.38465,0.68441 3.47471,1.38746 4.1189,1.52007 7.3733,1.51951 2.34177,-3.7e-4 4.23653,-0.23026 5.16363,-0.62706 0.30774,-0.13176 1.13438,-0.4646 1.83718,-0.73957 0.70282,-0.27497 1.48249,-0.66107 1.73263,-0.85784 2.02622,-1.17617 1.72143,-1.10096 2.85154,-2.12782 0.99065,-0.89054 2.51981,-2.74669 2.99288,-3.63293 0.31372,-0.58773 0.47411,-0.69425 1.20004,-0.79582 1.064,-0.14888 3.59406,-0.76606 4.43811,-1.08284 0.40881,-0.15342 0.79876,-0.18535 1.06157,-0.0865 0.45146,0.16972 0.50735,0.55324 0.30073,2.06077 -0.10115,0.73792 -0.18254,0.85605 -0.69233,1.00603 -0.57155,0.16816 -0.57714,0.18169 -0.5261,1.26278 0.0285,0.60101 0.12627,1.16725 0.21743,1.25846 0.16043,0.16043 4.1482,-0.16344 4.4713,-0.36311 0.17921,-0.11069 0.19427,-0.99206 0.0335,-1.96449 -0.10128,-0.61256 -0.17533,-0.69233 -0.644,-0.69233 -0.52895,0 -0.52971,-10e-4 -0.52971,-1.20401 0,-1.14277 0.0258,-1.21377 0.50771,-1.40016 1.49762,-0.5793 2.01301,-0.95372 2.66511,-1.93527 1.0331,-1.55508 1.17954,-3.80863 0.35553,-5.47409 -0.25881,-0.5231 -0.28361,-0.69449 -0.1006,-0.69449 0.13364,0 1.14099,-0.45776 2.23853,-1.01757 3.33939,-1.70334 6.31803,-3.74213 8.69665,-5.95188 0.13664,-0.12694 0.46861,-0.25969 0.62613,-0.44058 l 0.40148,-0.46109 c 0.58936,-0.51252 0.38021,-0.42455 0.79985,-0.62145 0.32463,-0.15232 0.61542,-0.44308 0.64618,-0.64618 0.0454,-0.29979 0.22119,-0.37978 0.93321,-0.42549 1.03637,-0.0665 1.13732,0.19599 0.43486,1.13008 -0.78235,1.04033 -1.94374,3.49156 -2.5526,5.38791 -0.58668,1.8272 -0.59265,1.88518 -0.59894,5.63094 -0.004,2.50625 0.077,4.1604 0.24051,4.89642 0.21304,0.95859 0.20713,1.30418 -0.0426,2.51294 -0.15922,0.77087 -0.34482,1.99475 -0.41215,2.71955 l -0.12224,1.3176 h 0.5481 c 1.05627,0 1.34055,-0.58008 1.77228,-3.6167 0.2132,-1.49947 0.42247,-2.60749 0.46517,-2.46246 0.15583,0.52944 1.04237,2.29605 1.18201,2.35537 0.079,0.0335 0.27791,0.34351 0.44172,0.68871 0.43043,0.90706 2.91024,3.34958 4.46336,4.39594 2.19359,1.37529 2.09807,1.22062 3.65599,1.82313 1.29354,0.50424 2.51725,0.80432 3.86334,0.94726 1.09976,0.11686 4.69069,-0.0409 5.82315,-0.25565 0.92147,-0.17475 2.52468,-0.7299 4.05408,-1.40413 1.15481,-0.50908 3.02902,-1.87866 4.3909,-3.20852 0.7328,-0.71558 1.33224,-1.36173 1.33237,-1.43586 1.3e-4,-0.0742 0.21859,-0.38411 0.48535,-0.68873 0.76897,-0.87811 2.25943,-4.1158 2.59226,-5.63094 0.21092,-0.9601 0.30747,-2.31869 0.31443,-4.43091 0.008,-2.5906 -0.0516,-3.27484 -0.40133,-4.57405 -0.44461,-1.65187 -1.35747,-3.59833 -2.44406,-5.21087 -2.71951,-4.03581 -8.08417,-7.00133 -12.68548,-7.01235 -1.30383,-0.003 -1.33851,-0.0152 -1.33851,-0.4648 0,-0.43909 -0.0521,-0.46155 -1.0677,-0.46155 -0.58711,0 -1.48965,0.1096 -2.0056,0.2434 l -0.93788,0.2434 0.3541,-0.84343 c 0.57328,-1.36536 1.50971,-3.17097 1.71387,-3.30442 0.1041,-0.068 1.31087,-0.12371 2.68169,-0.12371 h 2.49239 l 0.0518,-2.07699 c 0.0297,-1.1787 0.12949,-2.07699 0.23077,-2.07699 0.0982,0 0.17925,-0.14538 0.17994,-0.32308 10e-4,-0.31078 0.38823,-1.8336 1.67926,-6.61102 0.33704,-1.24727 0.54546,-2.37188 0.47418,-2.55765 -0.11686,-0.30463 -0.36332,-0.32487 -3.03328,-0.24844 -2.61542,0.0748 -3.15532,0.15031 -5.39836,0.75578 -1.37081,0.37003 -3.47782,0.93794 -4.68187,1.26171 l -2.18914,0.58847 0.11579,0.75184 c 0.24628,1.59955 0.84283,7.72562 0.76121,7.81717 -0.0244,0.0275 -0.31929,-0.76179 -0.65483,-1.7539 -0.33555,-0.9921 -0.76452,-2.16744 -0.95339,-2.61173 -0.21767,-0.51196 -0.28082,-0.88385 -0.17272,-1.01541 0.24141,-0.2939 0.71462,-2.06956 0.84268,-3.16165 0.0595,-0.5077 0.038,-1.85147 -0.048,-2.98639 -0.14849,-1.95906 -0.19068,-2.1132 -0.83367,-3.04625 -0.72816,-1.05659 -1.65788,-1.88844 -2.44588,-2.18804 -0.26991,-0.10262 -1.23357,-0.2392 -2.14117,-0.30362 -0.58793,-0.0418 -0.96762,-0.0659 -1.2177,-0.0606 z m 19.07222,7.16669 c 0.73135,0.005 1.1873,0.12868 1.10845,0.37718 -0.0599,0.18885 -0.21443,0.7081 -0.34328,1.15387 l -0.23402,0.81025 -1.10016,0.12156 c -0.60498,0.0668 -1.95136,0.18049 -2.99216,0.25276 l -1.89236,0.13164 v -0.90183 -0.90146 l 1.81988,-0.50519 c 1.298,-0.36023 2.69332,-0.54615 3.63365,-0.53872 z m -6.74876,1.35833 c 0.17122,10e-4 0.18749,0.17292 0.18749,0.74786 v 0.82323 l -1.93851,0.16768 -1.93852,0.16731 v -0.463 c 0,-0.42414 0.12815,-0.49718 1.52312,-0.86938 0.83772,-0.22351 1.71005,-0.46118 1.93852,-0.52789 0.0967,-0.0282 0.17081,-0.0463 0.2279,-0.0458 z m 6.85405,2.31463 -0.12841,0.53438 c -0.0707,0.29388 -0.13771,0.54831 -0.14892,0.56539 -0.0107,0.0171 -0.685,0.11498 -1.49717,0.21745 -0.81216,0.10248 -1.99585,0.23795 -2.63048,0.30109 l -1.1539,0.11471 v -0.62815 -0.62814 l 1.80006,-0.12478 c 0.99004,-0.0688 2.24072,-0.17591 2.77942,-0.23836 z m -6.66656,0.55565 v 0.55531 c 0,0.4984 -0.0711,0.56729 -0.69232,0.66997 v 3.8e-4 c -0.92231,0.15214 -2.72296,0.14905 -2.87713,-0.005 -0.0677,-0.0677 -0.1229,-0.31693 -0.1229,-0.55387 0,-0.39059 0.0818,-0.43094 0.87694,-0.43233 0.48233,-0.001 1.31311,-0.0539 1.84621,-0.11794 z m 6.14516,1.84729 -0.13379,0.5326 c -0.0735,0.2928 -0.16687,0.56531 -0.20734,0.60578 -0.0404,0.0406 -0.76052,0.13932 -1.60029,0.21961 -0.83975,0.0803 -1.87981,0.1513 -2.31137,0.15757 -0.71695,0.0107 -0.78465,-0.0282 -0.78465,-0.45002 0,-0.25385 0.0208,-0.4657 0.0461,-0.47129 0.10477,-0.0226 3.07326,-0.38241 3.99568,-0.48426 z m -6.67161,0.71361 c 0.52555,-0.003 0.52645,0.0896 0.52645,0.46048 0,0.46544 -0.0638,0.50246 -1.06156,0.6184 -0.58386,0.0678 -1.33159,0.16972 -1.66158,0.22645 -0.56981,0.0979 -0.60003,0.0744 -0.60003,-0.46768 0,-0.65777 0.13459,-0.71001 2.07699,-0.8088 0.31119,-0.0159 0.54454,-0.0276 0.71973,-0.0289 z m 2.20932,2.10584 c 0.50665,0 0.56209,0.0497 0.46408,0.4154 -0.0612,0.22847 -0.11215,0.4777 -0.11364,0.55386 -0.005,0.26709 -0.70297,0.13534 -0.81384,-0.15361 -0.23476,-0.61178 -0.11888,-0.81565 0.46335,-0.81565 z m -2.011,0.19255 c 0.0413,-10e-4 0.0774,-10e-4 0.10894,10e-4 0.21021,0.0171 0.21924,0.13325 0.21924,0.43306 0,0.27084 -0.10384,0.52491 -0.23078,0.56469 -0.12693,0.0398 -0.83311,0.12532 -1.56928,0.19002 l -1.3385,0.11754 v -0.56505 c 0,-0.53274 0.0406,-0.56504 0.71252,-0.56504 0.392,0 1.09817,-0.0526 1.56929,-0.11712 0.23461,-0.0323 0.4049,-0.0547 0.52861,-0.0595 z m 0.4767,3.01703 -0.1774,0.46625 c -0.0975,0.25643 -0.25076,0.55501 -0.34077,0.66348 -0.09,0.1084 -0.42764,0.85863 -0.75001,1.66735 -0.891,2.2352 -1.04715,2.48591 -1.54873,2.48591 -0.2747,0 -0.46764,0.1229 -0.50734,0.32308 -0.0516,0.26012 -0.0951,0.2735 -0.22393,0.0681 -0.10625,-0.16946 -0.0584,-0.31218 0.14278,-0.42477 0.16657,-0.0932 0.30289,-0.28976 0.30289,-0.43703 0,-0.14727 0.12398,-0.26792 0.2755,-0.26792 0.19979,0 0.26881,-0.19051 0.25096,-0.69233 -0.0136,-0.38078 0.0364,-1.2885 0.11108,-2.01749 0.15021,-1.46753 0.18919,-1.50894 1.60607,-1.71172 z m -6.78771,6.04779 c 0.0939,0.005 0.21792,0.17996 0.36203,0.5279 0.18297,0.44167 0.18282,0.61017 -3.7e-4,0.8308 -0.3916,0.47185 -0.5535,0.30945 -0.5535,-0.55423 0,-0.53992 0.0711,-0.81162 0.19183,-0.80447 z m 10.08854,3.11295 c 0.8599,-5.6e-4 3.08068,0.35009 3.50211,0.63936 0.76062,0.32166 0.77217,0.25934 1.55622,0.66561 0.8777,0.43577 0.94262,0.47405 1.58947,0.84378 l 0.44423,0.25062 c 0.26131,0.11659 0.3117,0.15449 0.57839,0.36923 0.88547,0.71169 1.77218,1.5463 2.35753,2.34203 0.0838,0.11216 0,0 0.27693,0.36058 0.0994,0.12936 0,0 0.27693,0.36491 0.20981,0.29365 0.27173,0.38181 0.46155,0.65952 0.23055,0.33727 0.33335,0.46864 0.46156,0.80988 0.15152,0.24799 0.16668,0.24483 0.26682,0.51096 0.25515,0.44338 0.52312,0.88843 0.59777,1.39054 0.36213,0.94685 0.49472,1.5524 0.61238,2.14646 0.0768,0.39524 0.16927,2.54233 -0.18066,3.62608 -0.20085,0.44263 -0.13667,0.70439 -0.37537,1.35869 -0.005,0.30463 -0.13177,0.71518 -0.2809,0.91229 -0.14907,0.19709 -0.2708,0.50865 -0.2708,0.69233 -0.30599,0.5608 -0.48868,1.28994 -0.83541,1.81087 -0.36278,0.33486 -0.57254,0.89669 -0.76883,1.22617 -0.49356,0.41873 -0.24765,0.39276 -0.72496,0.88211 -1.2379,1.14324 -1.27336,1.30953 -1.31707,1.32092 -1.12011,0.8061 -2.18448,1.39388 -2.93773,1.69543 -1.33829,0.32763 -2.379,0.77468 -3.58062,0.88205 -0.65434,0.0553 -1.43918,0.12291 -1.7438,0.15 -2.43691,0.44229 -5.3121,-0.58517 -6.55404,-1.6057 -0.30826,-0.0617 -0.92353,-0.48001 -1.38647,-0.94293 -0.45773,-0.45773 -1.03915,-0.96803 -1.29199,-1.13369 -0.60803,-0.3984 -2.04041,-2.59434 -2.18228,-3.34553 l -0.48751,-0.96926 c -0.20626,-0.20626 -0.375,-0.59392 -0.375,-0.86145 0,-0.26753 -0.0969,-1.01216 -0.21529,-1.65511 -0.26849,-1.45715 0.0362,-4.65304 0.59498,-6.24285 0.82152,-2.33741 2.52557,-4.83412 3.91022,-5.72866 0.501,-0.32367 0.50634,-0.32222 0.69233,0.16695 0.10302,0.27112 0.18714,0.53714 0.18714,0.59136 0,0.0541 0.14138,0.39654 0.31407,0.76048 0.23035,0.48542 0.25493,0.68138 0.0923,0.7356 -0.27712,0.0924 -0.29443,1.74083 -0.0278,2.62904 0.10653,0.35473 0.30649,1.68461 0.44461,2.95538 0.26109,2.40229 0.74017,3.74347 1.70883,4.78321 0.49816,0.5347 2.39434,0.73581 3.64302,0.3862 0.82711,-0.23159 0.82901,-0.23095 1.47733,0.43666 0.82786,0.85247 1.3944,0.89447 1.3944,0.10383 0,-0.40014 -0.1734,-0.72235 -0.59534,-1.10772 l -0.59497,-0.54342 h 0.55386 c 1.18709,0 1.92879,-1.11879 1.92879,-2.9103 0,-0.89087 -0.0697,-1.08524 -0.55243,-1.54656 -0.41815,-0.39963 -0.7305,-0.5279 -1.28694,-0.5279 -0.84466,0 -2.40691,-0.96785 -2.40691,-1.49104 0,-0.17169 -0.16617,-0.35544 -0.36925,-0.40854 -0.22092,-0.0578 -0.36924,-0.25194 -0.36924,-0.48318 0,-0.21261 -0.10907,-0.38657 -0.24232,-0.38657 -0.30535,0 -0.95253,-0.8673 -1.10483,-1.48057 -0.0635,-0.25587 -0.2797,-0.64109 -0.47996,-0.85603 -0.20025,-0.21495 -0.42016,-0.69108 -0.48896,-1.05796 -0.0688,-0.36692 -0.18936,-0.66709 -0.26755,-0.66709 -0.0782,0 -0.25198,-0.39463 -0.38655,-0.87696 -0.13458,-0.48232 -0.27311,-0.96909 -0.30758,-1.08176 -0.0345,-0.1127 0.16968,-0.29801 0.45362,-0.41216 0.94225,-0.37878 4.01472,-1.13566 4.61193,-1.1362 z m -56.86979,0.61553 c 1.93996,0.005 3.68913,0.41654 3.85289,1.107 0.10907,0.45974 0.2838,2.3939 0.27801,3.0769 -0.007,0.77497 -0.26543,2.17571 -1.35927,2.88805 -0.45432,0.28104 -1.02125,0.53435 -1.46054,0.7986 -0.19803,0.004 -0.32308,0.14868 -0.32308,0.37503 0,0.27077 -0.12303,0.36924 -0.46155,0.36924 -0.25386,0 -0.46155,-0.083 -0.46155,-0.18463 0,-0.10155 -0.20771,-0.18461 -0.46156,-0.18461 -0.25385,0 -0.46155,0.083 -0.46155,0.18461 0,0.55706 -1.26757,1.29235 -2.22771,1.29235 -0.47898,0 -0.54161,0.0643 -0.54161,0.55386 0,0.38296 -0.0908,0.55386 -0.29351,0.55386 -0.25387,0 -0.28487,0.27133 -0.23078,2.0193 0.0602,1.94519 0.0827,2.03989 0.60615,2.58578 0.88919,0.92729 2.30614,1.13928 4.91266,0.73486 1.11963,-0.17371 1.31948,-0.15998 1.58838,0.10894 0.21092,0.21088 0.53011,0.28649 1.01613,0.24015 0.38982,-0.0372 0.70893,-0.005 0.70893,0.0707 0,0.076 0.43617,0.11982 0.96925,0.0974 0.87896,-0.0369 5.29376,0.53924 5.47625,0.71469 0.042,0.0403 -0.0121,0.26527 -0.11861,0.50014 -0.19202,0.42146 -1.13658,0.7846 -3.096,1.18958 -0.67912,0.14036 -0.75176,0.2142 -0.90111,0.91949 -0.22448,1.06017 -0.0748,1.34247 0.71072,1.34247 0.35858,0 0.65195,0.083 0.65195,0.18463 0,0.10154 -0.12465,0.18462 -0.27693,0.18462 -0.15232,0 -0.27693,0.16044 -0.27693,0.35661 0,0.44638 -0.65718,0.9193 -2.41235,1.73552 -1.92633,0.8958 -3.95709,1.39996 -5.24285,1.27719 -1.06238,-0.0211 -1.4149,-10e-4 -2.22204,-0.16334 -0.20308,-0.0409 -0.84694,-0.16744 -1.43081,-0.28089 -0.80993,-0.15737 -0.82007,-0.37889 -1.04509,-0.48026 -0.31319,-0.14107 -0.31507,-0.11363 -0.72859,-0.31274 -0.43708,-0.2325 -0.63382,-0.37008 -1.07821,-0.65513 -0.84712,-0.22319 -2.86965,-1.75381 -3.19444,-2.32146 -0.15232,-0.29704 -0.40956,-0.68725 -0.57153,-0.86722 -0.16198,-0.17998 -0.46926,-0.73714 -0.66266,-1.31872 -0.48345,-0.87278 -0.32356,-0.60672 -0.46697,-0.93871 -0.0732,-0.16956 -0.32968,-0.81631 -0.32968,-0.99183 -0.48238,-1.36352 -0.9075,-2.81187 -0.9231,-4.20734 -0.23235,-0.73135 0.72729,-4.14704 1.10773,-4.67827 0.25306,-0.74598 0.11471,-0.21551 0.18463,-0.47886 0.22075,-0.98777 1.44855,-2.81336 2.38358,-3.57374 0.27693,-0.28873 0,0 0.87035,-0.83271 0.94566,-1.00735 3.46552,-2.16749 4.5463,-2.53667 1.00013,-0.3154 2.23276,-0.45778 3.39673,-0.45436 z m 8.60471,14.30057 c 0.91892,-0.0171 2.19647,0.15521 2.85839,0.44099 0.48017,0.20732 0.53917,0.30357 0.40349,0.65807 -0.17225,0.45011 -0.3743,0.47347 -1.92446,0.22249 -2.99091,-0.48428 -3.58105,-0.61184 -3.49229,-0.75543 0.0541,-0.0876 0.239,-0.15991 0.41071,-0.16047 0.17171,-5.4e-4 0.53381,-0.11686 0.80483,-0.25817 0.17807,-0.093 0.52165,-0.13975 0.93933,-0.14748 z m 8.64114,0.40674 c 0.27286,0 0.35806,0.12895 0.35806,0.54197 0,0.298 0.0853,0.76646 0.18967,1.04101 0.2212,0.58182 0.226,0.57563 -0.37429,0.48572 -0.69228,-0.1037 -0.79692,-0.2979 -0.65807,-1.22384 0.10034,-0.66914 0.20108,-0.84486 0.48463,-0.84486 z"
       inkscape:connector-curvature="0"
       sodipodi:nodetypes="cccsccscccscccccscscscccccccssccccccsccscsccsccccscscccccscccccccsscsccsccsccscsccccccccccccccsssssssccscccccccssccsccccccccccssscccscssccccsccscccsccccccccccscccccccccccccccccccscccccscccccccccscccscccccsccsccccsccsccsccccccscccsscccccccscccsscccccccsccccccscscsccccccccccccccccccccssccccscccccccsccsscsscsscccscccscccsscssccssscccccscccccsssscccscccccscccccccscccccccccssccccsscccs"
       inkscape:label="velib" />
    <text
       xml:space="preserve"
       style="font-style:normal;font-weight:normal;font-size:40px;line-height:1.25;font-family:sans-serif;letter-spacing:0px;word-spacing:0px;fill:#000000;fill-opacity:1;stroke:none"
       x="369.11874"
       y="507.49524"
       id="text9174"><tspan
         sodipodi:role="line"
         id="tspan9172"
         x="369.11874"
         y="507.49524"
         style="font-style:normal;font-variant:normal;font-weight:bold;font-stretch:normal;line-height:1.25;font-family:'Segoe Print';-inkscape-font-specification:'Segoe Print Bold';fill:#ffffff">BikeMe</tspan></text>
    <text
       xml:space="preserve"
       style="font-style:normal;font-weight:normal;font-size:13.33333302px;line-height:1.25;font-family:sans-serif;letter-spacing:0px;word-spacing:0px;fill:#000000;fill-opacity:1;stroke:none"
       x="408.31357"
       y="522.09113"
       id="text3703"><tspan
         sodipodi:role="line"
         id="tspan3701"
         x="408.31357"
         y="522.09113"
         style="font-style:normal;font-variant:normal;font-weight:normal;font-stretch:normal;font-size:10.66666698px;font-family:'Segoe Print';-inkscape-font-specification:'Segoe Print';fill:#ffffff">Find a bike everywhere</tspan></text>
    <path
       style="fill:#000000"
       d="m 710.97878,661.96618 c -0.0104,-1.85339 -0.46467,-5.31388 -1.00947,-7.68998 -1.69449,-7.3903 -0.6868,-37.4692 1.44658,-43.17981 0.30821,-0.825 0.75797,-2.53438 0.99947,-3.79863 0.87856,-4.59924 3.66804,-11.7715 5.71775,-14.70137 3.97389,-5.68033 4.38798,-5.86752 7.06277,-3.19273 4.63988,4.63988 6.72022,9.96547 10.23172,26.19273 1.36813,6.32238 2.12266,33.07232 1.05775,37.5 -0.19843,0.825 -0.22727,4.04012 -0.65462,6.65262 l -1.01855,5.55523 -5.13645,-0.14345 c -2.82506,0.01 -8.43669,-0.0104 -12.10855,0.0561 l -6.56948,0.11908 -0.0189,-3.36979 z m 13.83423,-1.11979 c 0.0104,-0.84652 0.31561,-0.77517 0.94563,0.22104 1.64857,2.60676 2.12619,0.425 0.56311,-2.57226 -0.83145,-1.59433 -1.5145,-3.39154 -1.51789,-3.99379 -0.008,-1.3487 -3.47797,-4.59984 -4.17065,-3.90717 -0.2762,0.2762 -0.50218,-0.12356 -0.50218,-0.88834 0,-0.76479 -0.58261,-2.79708 -1.29469,-4.5162 -1.098,-2.65081 -1.52833,-2.9333 -2.83254,-1.85947 -1.33381,1.09819 -1.45122,0.91826 -0.88495,-1.35619 0.40562,-1.6292 0.0283,-3.87434 -0.99619,-5.92805 l -1.64909,-3.30567 -0.93264,2.42805 c -1.05348,2.74266 -1.12478,11.50167 -0.10704,13.14842 0.43155,0.69826 1.15052,0.42422 2.02515,-0.7719 1.18989,-1.62727 1.27958,-1.29659 0.73197,2.69865 -0.85286,6.22234 2.48984,12.20904 3.96593,7.10288 0.27824,-0.9625 0.35049,-0.2875 0.16056,1.5 -0.32931,3.09925 -0.18703,3.25 3.06744,3.25 2.05537,0 3.41885,-0.49717 3.42807,-1.25 z m -6.01531,-7.25 c 0,-0.825 0.43588,-1.5 0.96861,-1.5 0.53274,0 0.7096,0.675 0.39302,1.5 -0.31659,0.825 -0.75246,1.5 -0.96862,1.5 -0.21616,0 -0.39301,-0.675 -0.39301,-1.5 z m 15.08223,4.75 c 0.0452,-1.5125 0.27871,-3.93589 0.51885,-5.38532 0.50049,-3.02081 -1.18998,-8.23679 -2.4226,-7.47499 -0.4539,0.28053 -1.4314,2.34664 -2.17222,4.59135 -1.1783,3.57026 -1.13983,4.51565 0.30721,7.55013 1.98805,4.16899 3.65608,4.48714 3.76876,0.71883 z m -3.84729,-11.74601 c 1.49889,-4.04422 1.51631,-4.85508 0.17336,-8.06922 -1.85425,-4.43785 -3.20533,-4.06919 -5.36913,1.46504 -1.54307,3.94664 -1.55243,4.58948 -0.11169,7.67133 0.86489,1.85005 2.03795,3.37838 2.60682,3.39629 0.56886,0.0179 1.78415,-1.99064 2.70064,-4.46344 z m -5.00725,-10.00399 c 1.07574,-2.81522 1.25362,-4.73213 0.60057,-6.47177 -1.59758,-4.25573 -3.07984,-4.17126 -5.15504,0.29378 -2.35122,5.05893 -2.35691,6.85663 -0.0303,9.57389 2.05133,2.39577 2.49819,2.06479 4.5848,-3.3959 z m 10.2468,-6.21563 c -0.10766,-2.0814 -0.25846,-4.79687 -0.33512,-6.03437 -0.22069,-3.56284 -2.69774,-2.61819 -4.07466,1.55392 -1.06828,3.23694 -1.00789,4.39209 0.40516,7.75 1.48719,3.5341 1.79314,3.76697 2.93046,2.23045 0.69844,-0.9436 1.18181,-3.4186 1.07416,-5.5 z m -13.48736,-7.07983 c 0.007,-0.7125 -1.03713,-2.34545 -2.32046,-3.62878 -1.28334,-1.28334 -2.33334,-3.01362 -2.33334,-3.84507 0,-2.62002 -2.58491,-7.87911 -3.4483,-7.01572 -0.45444,0.45444 -1.07599,3.26599 -1.38123,6.24789 -0.30524,2.98191 -0.75263,5.61931 -0.99421,5.86088 -0.24157,0.24157 0.0307,1.31722 0.60497,2.39032 1.00807,1.88359 1.09223,1.88769 2.43259,0.11851 1.23266,-1.62701 1.28583,-1.46159 0.47399,1.47473 -0.93216,3.37156 -0.55389,5.61031 1.36391,8.07207 0.84712,1.0874 1.55239,0.34654 3.3319,-3.5 1.24152,-2.68365 2.26311,-5.46233 2.27018,-6.17483 z m 9.4247,-0.39668 c 1.72513,-3.73622 1.76727,-4.39283 0.43151,-6.7242 -0.81418,-1.42101 -2.2308,-2.52219 -3.14806,-2.44707 -1.23567,0.10121 -1.43973,-0.27081 -0.78768,-1.43597 1.0502,-1.87659 -0.66049,-6.20062 -2.45311,-6.20062 -1.57455,0 -4.45449,4.37935 -4.45449,6.77369 0,1.01423 0.64718,2.71756 1.43817,3.78518 1.42113,1.91813 1.4563,1.91743 2.9682,-0.0589 1.80944,-2.36525 2.03121,-1.55449 0.49627,1.81433 -0.85896,1.88523 -0.74476,3.09029 0.52568,5.54706 0.89267,1.72623 1.94898,3.127 2.34736,3.11281 0.39838,-0.0142 1.58464,-1.88904 2.63615,-4.16634 z m -8.67339,-16.08912 c 1.47852,-2.5059 1.70205,-3.80555 0.94596,-5.5 -1.03782,-2.32585 -2.6844,-3.00778 -2.6844,-1.11175 0,0.60884 -0.66059,0.8535 -1.46798,0.54367 -0.80738,-0.30982 -1.76358,-0.085 -2.12488,0.49959 -0.75331,1.21888 1.53527,8.84975 2.65414,8.84975 0.40764,0 1.61236,-1.47657 2.67716,-3.28126 z"
       id="path3911"
       inkscape:connector-curvature="0"
       sodipodi:nodetypes="cccscssccccsccccccccssccccccccssscsscssccccsccsccccccsccccccscccsssscccccccccccsscccccccccsccsc"
       inkscape:label="Bara" />
    <path
       style="fill:#000000"
       d="m 753.3576,665.3716 -10.08052,0.0879 0.12647,-4.62733 c 0.20224,-2.46196 1.42834,-4.68634 4.13405,-7.5 l 3.84652,-4 0.68018,-18.25 c 0.53675,-14.40153 0.41358,-18.25 -0.58405,-18.25 -0.94122,0 -0.97495,-0.28927 -0.13202,-1.1322 0.84293,-0.84293 0.65947,-1.39736 -0.9527,-3.57794 -2.12677,-2.87661 -2.29384,-4.43513 -0.49922,-7.56208 1.4154,-2.46619 2.03318,-5.20875 2.4642,-15.48885 0.30604,-7.29924 0.72953,-13.09826 0.94108,-12.8867 0.21155,0.21155 0.59339,4.60634 0.84854,9.7662 0.60295,12.19364 1.39001,16.94854 3.08619,18.64472 1.88173,1.88173 1.73171,4.50098 -0.42112,7.35199 -1.94888,2.58093 -1.98798,4.48709 -0.59246,28.88486 l 0.71499,12.5 3.94743,3.62086 c 3.22026,2.95385 4.04355,4.47362 4.4692,8.25 0.40282,3.57381 0.20716,4.58499 -0.85828,4.43547 -0.75903,-0.10651 -5.63848,0.0391 -11.13848,-0.26686 z"
       id="path3930"
       inkscape:connector-curvature="0"
       sodipodi:nodetypes="cccccsssscsccscscsscc"
       inkscape:label="Berlin" />
    <path
       style="fill:#ffffff;fill-opacity:0.50196078"
       d="m 810.38421,572.55396 c -0.63064,-1.64343 3.39788,-6.72785 4.69532,-5.92599 0.41069,0.25382 2.31337,0.66207 4.22817,0.90722 2.77354,0.3551 3.91254,-0.05 5.60133,-1.9923 2.27158,-2.61255 3.64394,-3.03851 4.63308,-1.43805 0.33992,0.55 2.11138,1 3.93657,1 1.8252,0 3.87874,0.675 4.56343,1.5 0.68469,0.825 1.86479,1.5 2.62244,1.5 1.95479,0 1.70636,2.39247 -0.45118,4.34501 -2.63444,2.38414 -28.91903,2.47587 -29.82916,0.10411 z"
       id="path3956"
       inkscape:connector-curvature="0"
       inkscape:label="cloud3" />
  </g>
</svg>
