<?xml version="1.0" encoding="UTF-8" standalone="no"?>
<!-- Created with Inkscape (http://www.inkscape.org/) -->

<svg
   xmlns:dc="http://purl.org/dc/elements/1.1/"
   xmlns:cc="http://creativecommons.org/ns#"
   xmlns:rdf="http://www.w3.org/1999/02/22-rdf-syntax-ns#"
   xmlns:svg="http://www.w3.org/2000/svg"
   xmlns="http://www.w3.org/2000/svg"
   xmlns:xlink="http://www.w3.org/1999/xlink"
   xmlns:sodipodi="http://sodipodi.sourceforge.net/DTD/sodipodi-0.dtd"
   xmlns:inkscape="http://www.inkscape.org/namespaces/inkscape"
   version="1.1"
   x="0px"
   y="0px"
   width="86px"
   height="86px"
   viewBox="0 0 86 86"
   enable-background="new 0 0 86 86"
   xml:space="preserve"
   id="svg15"
   sodipodi:docname="icon-bikeme3.svg"
   inkscape:version="0.92.1 r15371"
   inkscape:export-filename="C:\Users\Sthocs\sailfish\icons\harbour-bikeme.png"
   inkscape:export-xdpi="121.40516"
   inkscape:export-ydpi="121.40516"><metadata
     id="metadata21"><rdf:RDF><cc:Work
         rdf:about=""><dc:format>image/svg+xml</dc:format><dc:type
           rdf:resource="http://purl.org/dc/dcmitype/StillImage" /><dc:title /></cc:Work></rdf:RDF></metadata><defs
     id="defs19"><linearGradient
       inkscape:collect="always"
       id="Green"><stop
         style="stop-color:#156c00;stop-opacity:1"
         offset="0"
         id="stop4440" /><stop
         style="stop-color:#1df015;stop-opacity:1"
         offset="1"
         id="stop4442" /></linearGradient><filter
       inkscape:collect="always"
       style="color-interpolation-filters:sRGB"
       id="filter9180"><feBlend
         inkscape:collect="always"
         mode="screen"
         in2="BackgroundImage"
         id="feBlend9182" /></filter><linearGradient
       inkscape:collect="always"
       xlink:href="#Green"
       id="linearGradient5083"
       gradientUnits="userSpaceOnUse"
       x1="0.703125"
       y1="85.140625"
       x2="85.265923"
       y2="0.74100995" /></defs><sodipodi:namedview
     pagecolor="#ffffff"
     bordercolor="#666666"
     borderopacity="1"
     objecttolerance="10"
     gridtolerance="10"
     guidetolerance="10"
     inkscape:pageopacity="0"
     inkscape:pageshadow="2"
     inkscape:window-width="1920"
     inkscape:window-height="1017"
     id="namedview17"
     showgrid="false"
     inkscape:zoom="8.0000001"
     inkscape:cx="-0.24691271"
     inkscape:cy="44.941555"
     inkscape:window-x="-8"
     inkscape:window-y="-8"
     inkscape:window-maximized="1"
     inkscape:current-layer="Layer_1" /><g
     id="Layer_2"
     display="none"
     style="display:inline" /><g
     id="Layer_1"
     style="display:inline;fill:url(#linearGradient5083);fill-opacity:1"><linearGradient
       id="SVGID_1_"
       gradientUnits="userSpaceOnUse"
       x1="85.283096"
       y1="0.71689999"
       x2="0.71689999"
       y2="85.283096"><stop
         offset="0.0054"
         style="stop-color:#154800;fill-opacity:1;fill:url(#linearGradient5083);stop-opacity:1"
         id="stop3" /><stop
         offset="1"
         style="stop-color:#30a00f;fill-opacity:1;fill:url(#linearGradient5083);stop-opacity:0.94117647"
         id="stop5" /></linearGradient><path
       d="M 84.277,0.3 H 43 C 19.417,0.3 0.3,19.418 0.3,43 v 41.277 c 0,0.786 0.637,1.423 1.423,1.423 H 43 C 66.583,85.7 85.7,66.582 85.7,43 V 1.723 C 85.7,0.937 85.063,0.3 84.277,0.3 Z"
       id="path8"
       inkscape:connector-curvature="0"
       style="fill:url(#linearGradient5083);fill-opacity:1"
       inkscape:export-xdpi="96.674477"
       inkscape:export-ydpi="96.674477" /><path
       id="path4356"
       style="display:none;opacity:0.98000004;fill:#ffffff;fill-opacity:1;stroke-width:0.13744786;filter:url(#filter9180)"
       d="m 51.228967,19.945323 c -0.310302,0.0067 -0.352425,0.07446 -0.397042,0.245095 -0.04132,0.158045 -0.254604,0.349887 -0.473819,0.426304 -0.337706,0.117722 -0.398384,0.212721 -0.398384,0.621471 0,0.430953 -0.06968,0.522661 -0.65288,0.859585 -0.79794,0.460981 -0.854571,0.537472 -0.85717,1.160792 -0.0031,0.732002 0.500192,1.222534 1.253941,1.222534 0.378052,0 0.681403,-0.09071 0.865765,-0.25906 0.407607,-0.372185 0.808406,-0.458361 1.109248,-0.238381 0.255544,0.186859 0.252929,0.23345 -0.112215,2.096883 -0.446801,2.280137 -0.45789,2.775639 -0.08482,3.762905 0.156707,0.414711 0.404048,1.094269 0.549791,1.510046 0.145736,0.415778 0.325483,0.879668 0.39946,1.03086 0.449053,0.917821 0.444123,0.966138 -0.284026,2.708958 -1.077515,2.578999 -2.119485,4.054784 -4.609066,6.528239 -2.470856,2.45485 -4.805113,4.038028 -7.886612,5.348655 -1.127368,0.479492 -1.205567,0.448941 -1.042939,-0.408048 0.05457,-0.287605 0.220265,-0.511576 0.493687,-0.667107 0.334176,-0.190084 0.411803,-0.324664 0.411803,-0.715157 0,-0.264551 -0.07049,-0.635363 -0.156506,-0.824152 -0.226737,-0.497597 -1.492867,-0.882867 -1.492867,-0.454221 0,0.149857 -1.509956,1.013912 -1.562664,0.894217 -0.04367,-0.09914 -0.718911,-1.969899 -1.278107,-3.541164 -0.33538,-0.942371 -0.739251,-1.92281 -0.897437,-2.178763 -0.2385,-0.385902 -0.254771,-0.486198 -0.09584,-0.586838 0.105413,-0.06674 0.241499,-0.12245 0.302547,-0.123488 0.06104,-10e-4 0.09197,-0.265019 0.06872,-0.586301 -0.03674,-0.507738 -0.0871,-0.589087 -0.385767,-0.622543 -0.883341,-0.09892 -0.962136,-0.152416 -0.962136,-0.651535 0,-0.333651 -0.06239,-0.478384 -0.206172,-0.478384 -0.113394,0 -0.205659,-0.07732 -0.205097,-0.171809 6.69e-4,-0.0945 -0.257913,-0.871579 -0.574222,-1.726956 l -0.575026,-1.555149 0.974753,-0.974752 0.974486,-0.974754 1.008307,-0.08402 c 1.160144,-0.09691 1.351928,-0.183584 1.351928,-0.610731 0,-0.329388 -0.148408,-0.54795 -0.667373,-0.983609 -0.282227,-0.236918 -0.607134,-0.282214 -2.542786,-0.354894 -1.225253,-0.046 -3.117671,-0.226813 -4.225447,-0.403485 -1.704534,-0.271849 -2.070426,-0.293496 -2.430304,-0.14443 -0.578503,0.239624 -0.855025,0.882619 -0.855025,1.986822 0,1.022243 0.186417,1.299369 1.168308,1.737428 0.302384,0.134891 0.657429,0.375559 0.788983,0.534757 0.176238,0.213278 0.3963,0.289392 0.83677,0.289392 0.511702,0 0.621561,0.05202 0.762135,0.360534 0.147621,0.32397 0.217561,0.351892 0.692339,0.27597 l 0.528318,-0.08457 0.316504,0.995427 c 0.17404,0.547483 0.521578,1.509243 0.772608,2.137154 0.532601,1.332207 0.550058,1.482184 0.181744,1.578503 -0.560883,0.146672 -0.25312,1.33448 0.345767,1.33448 0.255807,0 0.355027,0.09035 0.415565,0.377981 0.04373,0.207893 0.194007,0.733844 0.333686,1.168844 l 0.253956,0.791129 -0.345766,0.08671 c -0.190105,0.04772 -0.385239,0.02565 -0.43382,-0.04885 -0.04859,-0.07451 -0.335729,-0.291586 -0.638112,-0.482409 -0.302387,-0.190824 -0.766273,-0.539167 -1.03086,-0.774218 -0.264589,-0.235048 -0.525442,-0.428486 -0.57959,-0.429525 -0.05415,-0.0011 -0.487106,-0.254411 -0.962136,-0.562409 -1.047112,-0.678919 -2.632927,-1.432382 -3.75485,-1.784138 -2.522797,-0.79098 -6.148687,-0.721517 -8.791835,0.16832 -1.101116,0.370716 -1.357845,0.407924 -2.336612,0.339323 -0.604773,-0.04238 -1.289772,-0.150732 -1.522131,-0.2408 -0.498118,-0.193095 -1.158106,-0.0652 -1.158106,0.224426 0,0.111955 -0.123703,0.203487 -0.274894,0.203487 -0.22589,0 -0.275076,0.09189 -0.275702,0.51543 -3.34e-4,0.283488 -0.0566,0.73191 -0.124831,0.996497 -0.06823,0.264591 -0.163854,0.867637 -0.212346,1.340117 l -0.08805,0.859049 h 0.493687 c 0.896902,0 0.934467,0.232487 0.194361,1.198107 -0.919349,1.199475 -1.717312,2.889692 -2.119704,4.489337 -0.4472864,1.778084 -0.4839086,4.571578 -0.08054,6.145423 0.371387,1.449055 0.796317,2.608408 1.114347,3.040498 0.726049,1.23983 0.648645,1.065553 1.098778,1.720783 0.459923,0.683829 1.903226,2.0942 2.637282,2.576879 0.325921,0.214312 0.75118,0.496987 0.944954,0.628182 0.193774,0.131191 0.657659,0.360503 1.030859,0.509522 2.586878,1.03295 3.066466,1.131672 5.489324,1.131262 1.743423,-2.74e-4 3.154039,-0.171424 3.844247,-0.46684 0.229111,-0.09807 0.844534,-0.345884 1.367769,-0.550596 0.523235,-0.204709 1.10369,-0.492165 1.289917,-0.638651 1.508489,-0.875641 1.281575,-0.819647 2.122925,-1.58414 0.737537,-0.662992 1.875965,-2.044867 2.228159,-2.704665 0.233566,-0.437553 0.352978,-0.51686 0.893412,-0.592475 0.792147,-0.110837 2.675734,-0.570322 3.304116,-0.806163 0.304359,-0.114215 0.594668,-0.13799 0.790327,-0.06445 0.33611,0.126354 0.377724,0.411869 0.223888,1.534209 -0.07531,0.549374 -0.135903,0.637324 -0.515428,0.748983 -0.42551,0.125191 -0.429668,0.135273 -0.391674,0.94012 0.02115,0.447444 0.09398,0.869 0.161877,0.936904 0.119441,0.119434 3.088278,-0.121673 3.328817,-0.270334 0.133415,-0.08244 0.144632,-0.738574 0.02496,-1.462532 -0.07538,-0.456046 -0.13053,-0.515429 -0.479453,-0.515429 -0.393789,0 -0.394357,-10e-4 -0.394357,-0.896365 0,-0.85077 0.01923,-0.90363 0.377981,-1.042402 1.114956,-0.431278 1.498663,-0.710032 1.984135,-1.440786 0.769137,-1.157736 0.878149,-2.835479 0.264693,-4.075385 -0.192681,-0.389443 -0.211142,-0.51704 -0.0749,-0.51704 0.09948,0 0.849465,-0.340793 1.666557,-0.757573 2.486131,-1.268112 4.703694,-2.785953 6.474547,-4.431085 0.101718,-0.09449 0.348871,-0.193333 0.466138,-0.328007 l 0.298894,-0.343272 c 0.438777,-0.381566 0.283061,-0.316071 0.595488,-0.462664 0.241678,-0.113399 0.45817,-0.329871 0.481066,-0.481069 0.03382,-0.223193 0.164673,-0.282748 0.694758,-0.316774 0.771572,-0.0495 0.846727,0.145913 0.323754,0.841332 -0.58245,0.774511 -1.447091,2.59942 -1.900378,4.011224 -0.436776,1.360326 -0.441225,1.403491 -0.445901,4.19216 -0.0034,1.865871 0.05729,3.097359 0.179057,3.645321 0.158598,0.713658 0.154205,0.970933 -0.03167,1.870848 -0.118543,0.573895 -0.256711,1.485059 -0.306841,2.024673 l -0.09101,0.980926 h 0.40805 c 0.786384,0 0.998024,-0.431864 1.319445,-2.692586 0.158719,-1.116333 0.314513,-1.941249 0.346305,-1.833264 0.116007,0.394156 0.776029,1.709377 0.87999,1.753536 0.05882,0.02498 0.206897,0.255743 0.328854,0.512746 0.320447,0.675287 2.166642,2.49371 3.322908,3.272708 1.633096,1.023885 1.561991,0.908736 2.721843,1.357297 0.963018,0.375399 1.874053,0.598806 2.876207,0.705227 0.818748,0.08696 3.492149,-0.03045 4.335246,-0.190334 0.686021,-0.130098 1.879593,-0.543397 3.018218,-1.045353 0.859737,-0.379009 2.255056,-1.398639 3.268957,-2.388702 0.545559,-0.532733 0.991839,-1.013789 0.991934,-1.068977 9.3e-5,-0.0552 0.162737,-0.285959 0.361336,-0.512747 0.572488,-0.653738 1.682119,-3.064165 1.929907,-4.192161 0.157023,-0.714783 0.228897,-1.726227 0.234092,-3.298748 0.0064,-1.928674 -0.03844,-2.438071 -0.298789,-3.405324 -0.331013,-1.229792 -1.010618,-2.678908 -1.819574,-3.879415 -2.02464,-3.004615 -6.018562,-5.212396 -9.444172,-5.220603 -0.970679,-0.0022 -0.996497,-0.01132 -0.996497,-0.346036 0,-0.326893 -0.03881,-0.343621 -0.79489,-0.343621 -0.437101,0 -1.109016,0.08157 -1.493135,0.181207 l -0.698245,0.181206 0.263621,-0.627912 c 0.426801,-1.016498 1.123963,-2.360755 1.275958,-2.460103 0.07746,-0.05064 0.975926,-0.09208 1.99648,-0.09208 h 1.855549 l 0.03865,-1.546288 c 0.02207,-0.877538 0.09636,-1.546291 0.171808,-1.546291 0.07312,0 0.133442,-0.108246 0.13396,-0.240534 9.32e-4,-0.231364 0.289035,-1.365089 1.250188,-4.921812 0.250918,-0.928579 0.406084,-1.765838 0.353014,-1.904139 -0.08703,-0.226791 -0.270489,-0.241859 -2.258223,-0.184963 -1.947149,0.05574 -2.349106,0.111907 -4.019013,0.562675 -1.020555,0.275484 -2.589195,0.698281 -3.485593,0.939316 l -1.629775,0.438116 0.08617,0.559724 c 0.183344,1.190856 0.627475,5.75163 0.566704,5.819792 -0.01822,0.02043 -0.237705,-0.56715 -0.487511,-1.305756 -0.249805,-0.738607 -0.569173,-1.613629 -0.709789,-1.944405 -0.16205,-0.381142 -0.209053,-0.658012 -0.128589,-0.75596 0.179737,-0.218795 0.532033,-1.540762 0.627375,-2.353798 0.04434,-0.37798 0.02834,-1.378398 -0.0357,-2.223325 -0.110551,-1.458494 -0.14196,-1.573256 -0.620663,-2.267892 -0.542102,-0.786627 -1.234257,-1.405925 -1.820915,-1.628974 -0.200948,-0.07637 -0.918381,-0.178077 -1.594074,-0.226036 -0.437713,-0.03107 -0.720384,-0.04912 -0.906563,-0.0451 z m 14.199008,5.335501 c 0.54448,0.0043 0.883932,0.09584 0.825226,0.280803 -0.04463,0.140603 -0.159635,0.527177 -0.255566,0.859048 l -0.174226,0.603216 -0.81905,0.09046 c -0.450406,0.04972 -1.452759,0.134367 -2.227622,0.188183 l -1.408844,0.09799 V 26.72912 26.057987 l 1.354885,-0.3761 c 0.966333,-0.268185 2.005141,-0.406598 2.705197,-0.40107 z m -5.024361,1.011261 c 0.127472,0.0013 0.139594,0.128734 0.139594,0.556772 v 0.61288 l -1.443204,0.124832 -1.443203,0.124559 v -0.344693 c 0,-0.315766 0.09543,-0.370144 1.133945,-0.647239 0.623667,-0.166408 1.273113,-0.343347 1.443203,-0.393017 0.07198,-0.02101 0.12717,-0.03455 0.169665,-0.03409 z m 5.102752,1.723202 -0.09557,0.397847 c -0.05261,0.218786 -0.102517,0.408206 -0.110873,0.420932 -0.0083,0.01274 -0.509972,0.08557 -1.114616,0.161878 -0.60465,0.0763 -1.485887,0.177144 -1.958366,0.224157 l -0.859051,0.08537 V 28.83782 28.370178 l 1.34012,-0.09288 c 0.737064,-0.05117 1.668178,-0.130961 2.069232,-0.177446 z m -4.963158,0.413684 v 0.413419 c 0,0.371048 -0.05293,0.422338 -0.51543,0.498785 v 2.74e-4 c -0.686654,0.113274 -2.027215,0.110971 -2.141987,-0.0038 -0.05039,-0.05039 -0.09155,-0.235951 -0.09155,-0.412343 0,-0.29079 0.06087,-0.320835 0.652877,-0.321873 0.359084,-6.7e-4 0.977602,-0.04009 1.374479,-0.08779 z m 4.574974,1.375285 -0.0996,0.396505 c -0.0547,0.217989 -0.124229,0.420872 -0.15436,0.451003 -0.03015,0.03015 -0.566198,0.10372 -1.191392,0.163486 -0.625188,0.05975 -1.399496,0.112639 -1.720785,0.117315 -0.533757,0.0078 -0.584155,-0.02105 -0.584155,-0.33503 0,-0.188992 0.01546,-0.346712 0.03435,-0.350871 0.07801,-0.01681 2.288,-0.284705 2.974729,-0.360529 z m -4.966915,0.531271 c 0.391259,-0.0024 0.391941,0.06669 0.391941,0.342811 0,0.346526 -0.04747,0.374084 -0.790326,0.460397 -0.434677,0.05052 -0.991345,0.126354 -1.23703,0.168589 -0.424208,0.07289 -0.446707,0.05544 -0.446707,-0.348185 0,-0.489694 0.1002,-0.528589 1.546289,-0.602139 0.231684,-0.01178 0.405411,-0.02064 0.535833,-0.02149 z m 1.64481,1.567763 c 0.377192,0 0.418466,0.03697 0.345499,0.309258 -0.04559,0.17009 -0.08352,0.355648 -0.08457,0.412342 -0.0036,0.19885 -0.523346,0.100761 -0.6059,-0.114362 -0.17477,-0.455454 -0.08851,-0.607238 0.344964,-0.607238 z m -1.49716,0.143351 c 0.03071,-0.0013 0.0576,-6.67e-4 0.08108,9.32e-4 0.156499,0.01275 0.163219,0.09924 0.163219,0.322411 0,0.201637 -0.07732,0.390785 -0.171809,0.420397 -0.09449,0.02965 -0.620237,0.09332 -1.168308,0.141475 l -0.996498,0.08752 v -0.420665 c 0,-0.396615 0.0302,-0.420666 0.530464,-0.420666 0.291838,0 0.817574,-0.0392 1.168307,-0.08724 0.174676,-0.02395 0.301446,-0.04069 0.393552,-0.0443 z m 0.354892,2.246146 -0.132078,0.347111 c -0.07259,0.190912 -0.186673,0.413204 -0.253688,0.493954 -0.06702,0.08074 -0.318373,0.639239 -0.558381,1.241325 -0.66334,1.664062 -0.779588,1.850714 -1.153005,1.850714 -0.204508,0 -0.348156,0.09147 -0.377715,0.240535 -0.03836,0.193654 -0.07078,0.203612 -0.166707,0.05074 -0.07915,-0.126163 -0.04346,-0.232417 0.106303,-0.316237 0.124006,-0.06938 0.225499,-0.215727 0.225499,-0.325365 0,-0.109638 0.09225,-0.19946 0.205097,-0.19946 0.148742,0 0.200133,-0.141831 0.186845,-0.51543 -0.01009,-0.283491 0.02713,-0.959269 0.08269,-1.501995 0.111823,-1.092556 0.140847,-1.123388 1.195689,-1.274345 z m -5.053356,4.502494 c 0.06993,0.0041 0.162234,0.13398 0.269526,0.393015 0.136215,0.328814 0.136104,0.454258 -2.75e-4,0.618516 -0.291542,0.351287 -0.412076,0.230378 -0.412076,-0.412612 0,-0.401971 0.0529,-0.604236 0.142817,-0.598919 z m 7.510774,2.317555 c 0.640193,-5.34e-4 2.293524,0.260624 2.607277,0.475985 0.566276,0.239473 0.574872,0.193083 1.158582,0.495545 0.653437,0.324414 0.70177,0.352916 1.183339,0.628179 l 0.330735,0.186576 c 0.194531,0.08677 0.232044,0.115022 0.430598,0.274896 0.659222,0.529832 1.319359,1.1512 1.755147,1.743601 0.06237,0.08347 0,0 0.20617,0.268452 0.07398,0.09633 0,0 0.206173,0.271674 0.156197,0.218615 0.202295,0.284244 0.343617,0.491002 0.171636,0.2511 0.248167,0.348897 0.343622,0.602944 0.11281,0.184626 0.124093,0.182277 0.198652,0.380399 0.189946,0.330093 0.38945,0.661426 0.44503,1.035248 0.269593,0.704913 0.368311,1.155732 0.455902,1.598006 0.0572,0.294246 0.126021,1.892726 -0.134498,2.699562 -0.149531,0.329538 -0.101748,0.524412 -0.279457,1.011531 -0.004,0.226788 -0.09813,0.532441 -0.209124,0.679186 -0.110991,0.146731 -0.201609,0.378685 -0.201609,0.515432 -0.227809,0.417506 -0.363817,0.960341 -0.621952,1.348168 -0.270082,0.249298 -0.426242,0.667573 -0.572389,0.912862 -0.367436,0.311736 -0.184364,0.292406 -0.539717,0.656714 -0.9216,0.85113 -0.948003,0.974938 -0.980538,0.983412 -0.833912,0.600136 -1.626317,1.037731 -2.187099,1.262237 -0.996342,0.243906 -1.771129,0.576729 -2.665726,0.656663 -0.487144,0.04121 -1.071449,0.09154 -1.298236,0.111677 -1.814246,0.329274 -3.954789,-0.435651 -4.879401,-1.195421 -0.229488,-0.04589 -0.687554,-0.35736 -1.032201,-0.702003 -0.340774,-0.340775 -0.773636,-0.720685 -0.961866,-0.844018 -0.452674,-0.296606 -1.519062,-1.931456 -1.624678,-2.490706 l -0.362948,-0.7216 c -0.153554,-0.153557 -0.279189,-0.442158 -0.279189,-0.641335 0,-0.199171 -0.07208,-0.75354 -0.160271,-1.232199 -0.199884,-1.084829 0.02697,-3.464132 0.442949,-4.647724 0.611615,-1.740164 1.880251,-3.598938 2.911104,-4.264911 0.372993,-0.240971 0.37697,-0.239883 0.515432,0.124293 0.07674,0.201852 0.139326,0.399897 0.139326,0.440263 0,0.04035 0.10525,0.295213 0.233821,0.566166 0.171492,0.361387 0.189795,0.50728 0.06872,0.547644 -0.206305,0.06877 -0.219195,1.296028 -0.02067,1.95729 0.07928,0.264087 0.228174,1.25417 0.331002,2.200241 0.194382,1.788468 0.551044,2.786959 1.272198,3.561028 0.370868,0.398078 1.782553,0.547797 2.712181,0.287514 0.615775,-0.172404 0.617179,-0.171926 1.09985,0.325097 0.616334,0.634645 1.03811,0.665913 1.03811,0.07731 0,-0.297902 -0.129094,-0.53778 -0.443217,-0.824688 l -0.442951,-0.404562 h 0.412347 c 0.883771,0 1.435953,-0.832924 1.435953,-2.166683 0,-0.663241 -0.05188,-0.807946 -0.411272,-1.151395 -0.311308,-0.297515 -0.543854,-0.393015 -0.958109,-0.393015 -0.628842,0 -1.791924,-0.720552 -1.791924,-1.110053 0,-0.127824 -0.123702,-0.264622 -0.274894,-0.304156 -0.164471,-0.04301 -0.274895,-0.187558 -0.274895,-0.359726 0,-0.158274 -0.08121,-0.287783 -0.180401,-0.287783 -0.227323,0 -0.709147,-0.645699 -0.822539,-1.102268 -0.0473,-0.190495 -0.208225,-0.477284 -0.357314,-0.637307 -0.149086,-0.160029 -0.312799,-0.514493 -0.364019,-0.78764 -0.05125,-0.273153 -0.140983,-0.496639 -0.199192,-0.496639 -0.0582,0 -0.187599,-0.293797 -0.287783,-0.652875 -0.10019,-0.359087 -0.203328,-0.721483 -0.228989,-0.805361 -0.02567,-0.08387 0.126322,-0.221864 0.337714,-0.306842 0.70149,-0.282003 2.988902,-0.845488 3.433512,-0.845895 z m -42.338782,0.458248 c 1.444271,0.0042 2.746498,0.310111 2.868421,0.82415 0.08119,0.34227 0.211288,1.782223 0.206975,2.290709 -0.0049,0.576949 -0.197603,1.619776 -1.011955,2.150106 -0.338234,0.20923 -0.760315,0.397825 -1.087346,0.594556 -0.147446,0.0028 -0.240534,0.110685 -0.240534,0.279193 0,0.201592 -0.09163,0.274894 -0.343619,0.274894 -0.188991,0 -0.343622,-0.06184 -0.343622,-0.137448 0,-0.0756 -0.154627,-0.137446 -0.343618,-0.137446 -0.188992,0 -0.343618,0.06184 -0.343618,0.137446 0,0.414723 -0.943689,0.962137 -1.658503,0.962137 -0.356587,0 -0.403217,0.04786 -0.403217,0.412343 0,0.285105 -0.06756,0.412343 -0.218521,0.412343 -0.189005,0 -0.212082,0.201992 -0.17181,1.503337 0.04483,1.448166 0.06157,1.518671 0.451271,1.925076 0.661984,0.690363 1.71689,0.848186 3.657402,0.547107 0.833553,-0.129331 0.982349,-0.119112 1.182535,0.08109 0.157022,0.156999 0.394662,0.213282 0.7565,0.17879 0.290208,-0.02768 0.527779,-0.004 0.527779,0.05261 0,0.05659 0.32472,0.08916 0.721601,0.07249 0.654374,-0.02749 3.94113,0.401454 4.076992,0.532073 0.03118,0.02998 -0.0087,0.197492 -0.08832,0.372344 -0.142966,0.313781 -0.846168,0.584125 -2.304935,0.885626 -0.5056,0.104503 -0.559681,0.159468 -0.670864,0.684556 -0.167128,0.789278 -0.05568,0.999451 0.529122,0.999451 0.266958,0 0.485362,0.06184 0.485362,0.137448 0,0.0756 -0.09278,0.137447 -0.206171,0.137447 -0.113394,0 -0.206171,0.11945 -0.206171,0.265499 0,0.332326 -0.489252,0.684403 -1.795952,1.292066 -1.434133,0.666919 -2.946002,1.042243 -3.903229,0.950859 -0.790936,-0.01565 -1.053384,-10e-4 -1.654283,-0.121609 -0.151192,-0.03049 -0.630543,-0.124662 -1.065223,-0.209125 -0.602979,-0.117164 -0.610532,-0.282076 -0.77805,-0.357539 -0.233171,-0.105035 -0.23457,-0.08457 -0.542427,-0.232826 -0.3254,-0.173108 -0.471872,-0.275527 -0.802709,-0.487747 -0.630674,-0.166155 -2.136426,-1.305686 -2.378225,-1.728301 -0.113395,-0.221136 -0.30491,-0.511643 -0.425499,-0.645629 -0.12059,-0.133985 -0.349345,-0.548784 -0.493342,-0.981772 -0.35992,-0.649769 -0.240878,-0.451693 -0.347646,-0.698858 -0.05453,-0.126232 -0.245443,-0.607731 -0.245443,-0.738398 -0.359133,-1.015124 -0.675619,-2.093401 -0.687238,-3.13231 -0.172983,-0.544479 0.541464,-3.087413 0.824686,-3.482907 0.188407,-0.555374 0.08538,-0.160442 0.137451,-0.356507 0.164356,-0.735389 1.078435,-2.094504 1.774549,-2.660596 0.20617,-0.214956 0,0 0.647968,-0.619936 0.704028,-0.749966 2.580026,-1.613676 3.384653,-1.888528 0.744596,-0.234807 1.662265,-0.340802 2.528828,-0.338251 z m 6.406092,10.646574 c 0.684118,-0.01266 1.635242,0.115554 2.128028,0.328318 0.357483,0.154346 0.401398,0.226011 0.300396,0.489928 -0.128239,0.335094 -0.278664,0.352493 -1.432733,0.165634 -2.226696,-0.360534 -2.666038,-0.455503 -2.599966,-0.562408 0.04031,-0.06523 0.177937,-0.119051 0.305768,-0.119463 0.127834,-4e-4 0.397411,-0.08695 0.599187,-0.192212 0.132571,-0.06917 0.388357,-0.104045 0.69932,-0.109797 z m 6.433206,0.302815 c 0.20314,0 0.266575,0.09597 0.266575,0.403485 0,0.221866 0.06349,0.570625 0.141207,0.775023 0.164684,0.433159 0.168251,0.428551 -0.278655,0.361607 -0.515398,-0.0772 -0.593299,-0.221775 -0.489927,-0.91113 0.07469,-0.498168 0.149703,-0.628985 0.3608,-0.628985 z"
       inkscape:connector-curvature="0"
       sodipodi:nodetypes="cccsccscccscccccscscscccccccssccccccsccscsccsccccscscccccscccccccsscsccsccsccscsccccccccccccccsssssssccscccccccssccsccccccccccssscccscssccccsccscccsccccccccccscccccccccccccccccccscccccscccccccccscccscccccsccsccccsccsccsccccccscccsscccccccscccsscccccccsccccccscscsccccccccccccccccccccssccccscccccccsccsscsscsscccscccscccsscssccssscccccscccccsssscccscccccscccccccscccccccccssccccsscccs"
       inkscape:label="bike2" /><path
       style="display:inline;opacity:0.98000004;fill:#ffffff;fill-opacity:1;stroke-width:0.8809582"
       d="m 51.674811,80.005082 c 3.9e-5,-1.4e-5 -4.7e-5,1.34e-4 -6e-6,1.25e-4 z M 16.184357,66.003275 c -6.2648978,-5.500658 -6.5061952,-13.8654 -0.563061,-19.518968 5.952608,-5.662581 13.544184,-5.215202 18.868101,1.111917 1.174405,1.395701 2.503844,2.537637 2.95431,2.537637 1.122554,0 5.461429,-3.479964 5.461429,-4.380299 0,-0.400721 -2.946621,-1.384147 -6.548047,-2.18539 -8.002471,-1.78038 -11.071118,-3.94162 -11.071118,-7.797366 0,-2.284308 1.057496,-3.794423 5.90419,-8.431242 5.48057,-5.243248 5.886717,-5.890478 5.660703,-9.020793 -0.309379,-4.284858 2.830605,-7.828029 6.937251,-7.828029 3.59055,0 7.045644,3.653714 7.045644,7.450669 0,5.007059 -5.596539,8.835703 -9.703066,6.637958 -3.135173,-1.677893 -4.159986,0.137072 -2.598859,4.602633 1.702654,4.870385 5.12045,6.80011 13.251183,7.481762 5.242161,0.439483 6.100635,0.718216 4.904921,1.592539 -0.797163,0.5829 -1.448123,1.808977 -1.446581,2.724617 0.0023,1.379665 0.675345,1.668615 3.929569,1.687089 7.093998,0.04028 12.391918,5.692697 12.32091,13.145356 -0.05094,5.343653 -1.736824,8.502846 -5.94989,11.149338 -4.015522,2.522403 -11.997628,1.983843 -15.220303,-1.026935 -6.400776,-5.979908 -6.405681,-14.166977 -0.01199,-20.140021 1.417581,-1.324335 2.286099,-3.081439 2.286099,-4.625032 0,-2.261933 -0.284225,-2.489311 -3.111649,-2.489311 -6.421659,0 -12.388556,-4.332821 -13.569259,-9.853224 l -0.62467,-2.920669 -4.121108,4.068634 c -2.321443,2.29189 -4.121103,4.880856 -4.121103,5.928566 0,2.405025 5.194789,5.113091 11.382956,5.933979 4.227665,0.560819 7.117168,2.117053 7.117168,3.833176 0,1.118566 -4.426905,5.231241 -6.255727,5.811686 -1.274281,0.404441 -1.6729,1.366893 -1.6729,4.039174 0,4.06426 -1.244718,7.476288 -4.790025,10.207473 -1.869553,1.440241 -3.482172,2.755983 -7.918958,2.958446 -5.039588,0.229971 -6.167707,-0.876711 -8.726045,-2.68537 z m 14.477326,-1.145567 c 3.03164,-2.040099 5.59374,-7.375991 4.682233,-9.751336 -0.388862,-1.013358 -0.988109,-1.0207 -3.719072,-0.04558 -3.8588,1.377848 -5.457915,1.518042 -5.457915,0.478501 0,-0.418702 1.805138,-1.450662 4.011412,-2.293246 4.751464,-1.814601 4.871713,-3.423368 0.477243,-6.384802 -5.702351,-3.842813 -13.296494,-1.782879 -16.231858,4.402944 -1.798622,3.790308 -1.828514,5.118684 -0.202749,9.009693 2.578455,6.171103 10.712058,8.43883 16.440706,4.583821 z m 33.990949,0.296293 c 3.55857,-2.169821 4.9749,-4.822394 4.9749,-9.317252 0,-6.347474 -4.763656,-10.988636 -11.278663,-10.988636 -2.978266,0 -3.114359,0.127633 -2.583391,2.422637 0.30827,1.332448 1.286989,3.699944 2.174928,5.261104 0.887938,1.56116 1.2909,3.038429 0.895465,3.28282 -1.088629,0.672808 -3.246308,-2.197977 -4.435219,-5.901051 -0.583363,-1.816976 -1.364902,-3.303594 -1.736759,-3.303594 -1.313405,0 -3.687157,3.353923 -4.527321,6.396738 -2.626995,9.514196 8.00721,17.335446 16.51606,12.147234 z M 47.897931,20.520246 c 1.339796,-2.044783 1.36685,-2.5546 0.240556,-4.532832 -2.823319,-4.958871 -8.757176,-3.694989 -8.757176,1.865234 0,3.501287 1.348725,4.971509 4.560673,4.971509 1.666088,0 2.927866,-0.734847 3.955955,-2.303911 z"
       id="path3693"
       inkscape:connector-curvature="0"
       sodipodi:nodetypes="ccccsssssssssssssccscsscssscsssssssscccscssssscccsscsscsscccsscc"
       inkscape:label="bike1" /></g></svg>